<svg id="icons8-american-express" xmlns="http://www.w3.org/2000/svg" xmlns:xlink="http://www.w3.org/1999/xlink" width="27.033" height="18.431" viewBox="0 0 27.033 18.431">
  <defs>
    <linearGradient id="linear-gradient" x1="0.418" y1="45.202" x2="0.608" y2="46.198" gradientUnits="objectBoundingBox">
      <stop offset="0" stop-color="#00b3ee"/>
      <stop offset="1" stop-color="#0082d8"/>
    </linearGradient>
  </defs>
  <path id="Path_83784" data-name="Path 83784" d="M27.266,9H3.766A1.766,1.766,0,0,0,2,10.766v14.9a1.766,1.766,0,0,0,1.766,1.766h23.5a1.766,1.766,0,0,0,1.766-1.766v-14.9A1.766,1.766,0,0,0,27.266,9Z" transform="translate(-2 -9)" fill="url(#linear-gradient)"/>
  <path id="Path_83785" data-name="Path 83785" d="M16.974,24.518a.923.923,0,0,1-.922-.922v-.025l-.19.411a.925.925,0,0,1-.837.536h-.563a.922.922,0,0,1-.842-.548l-.156-.351a.922.922,0,0,1-.922.9H10.921a.922.922,0,0,1-.844-.552L9.9,23.561H8.6l-.172.4a.922.922,0,0,1-.847.557H6.9a.769.769,0,0,1-.768-.768v-.034l.007-.074.021-.1,1.745-4A.926.926,0,0,1,8.751,19h1a.923.923,0,0,1,.841.545l.589,1.318v-.942A.923.923,0,0,1,12.1,19h1.15a.923.923,0,0,1,.84.544l.652,1.451.656-1.452A.922.922,0,0,1,16.236,19h1.181a.923.923,0,0,1,.922.922V23.6a.923.923,0,0,1-.922.922h-.444Z" transform="translate(-3.594 -12.856)" opacity="0.05"/>
  <path id="Path_83786" data-name="Path 83786" d="M17.167,24.4a.615.615,0,0,1-.614-.614V22.364l-.776,1.682a.616.616,0,0,1-.558.357h-.563a.614.614,0,0,1-.562-.366l-.743-1.677v1.428a.615.615,0,0,1-.614.614H11.115a.614.614,0,0,1-.563-.368l-.258-.589H8.588l-.252.586a.615.615,0,0,1-.565.371H7.094a.461.461,0,0,1-.461-.461V23.9l.022-.1,1.726-3.939a.617.617,0,0,1,.563-.367h1a.616.616,0,0,1,.561.363L11.678,22.5V20.114a.615.615,0,0,1,.614-.614h1.15a.615.615,0,0,1,.56.362l.931,2.074.936-2.074a.616.616,0,0,1,.56-.362h1.18a.615.615,0,0,1,.614.614v3.675a.615.615,0,0,1-.614.614ZM9.6,21.9l-.18-.412-.173.412Z" transform="translate(-3.787 -13.049)" opacity="0.07"/>
  <path id="Path_83787" data-name="Path 83787" d="M17.8,20H16.622a.307.307,0,0,0-.28.181l-1.216,2.7-1.21-2.7A.309.309,0,0,0,13.634,20h-1.15a.307.307,0,0,0-.307.307v3.825l-1.764-3.95a.307.307,0,0,0-.28-.182h-1a.307.307,0,0,0-.281.184l-1.712,3.9a.325.325,0,0,0-.01.056.154.154,0,0,0,.154.154h.678a.307.307,0,0,0,.282-.186l.332-.772h2.109l.339.773a.307.307,0,0,0,.281.184h1.621a.307.307,0,0,0,.307-.307V21.1l1.331,3a.306.306,0,0,0,.281.182h.564a.307.307,0,0,0,.279-.178l1.362-2.952v2.823a.307.307,0,0,0,.307.307H17.8a.307.307,0,0,0,.307-.307V20.307A.307.307,0,0,0,17.8,20ZM8.977,22.405l.63-1.5.655,1.5Z" transform="translate(-3.979 -13.242)" fill="#fff"/>
  <path id="Path_83788" data-name="Path 83788" d="M34.369,24.529a.922.922,0,0,1-.694-.315l-.707-.807-.73.807a.923.923,0,0,1-.683.3H27.922A.923.923,0,0,1,27,23.6V19.922A.923.923,0,0,1,27.922,19h4.185l.918,1.038.8-.874.061-.026a.693.693,0,0,1,.417-.127h.947a.769.769,0,0,1,.768.768.755.755,0,0,1-.186.494l-1.327,1.45,1.573,1.825-.063.147c0,.022,0,.044,0,.066a.769.769,0,0,1-.768.768Z" transform="translate(-11.641 -12.856)" opacity="0.05"/>
  <path id="Path_83789" data-name="Path 83789" d="M34.562,24.415a.614.614,0,0,1-.462-.209l-.934-1.067L32.2,24.2a.614.614,0,0,1-.455.2H28.114a.615.615,0,0,1-.614-.614V20.114a.615.615,0,0,1,.614-.614H32.16l1.051,1.189.99-1.075.02-.009a.454.454,0,0,1,.276-.094h.947a.461.461,0,0,1,.461.461.451.451,0,0,1-.113.3l-1.5,1.642L35.916,23.8l-.023.052a.437.437,0,0,1,.013.106.461.461,0,0,1-.461.461h-.883Zm-3.371-1.526.213-.234H29.169v.234Zm.337-.369.563-.617-.563-.63Zm-.039-1.292-.163-.182-2.156-.006v.189h2.319Z" transform="translate(-11.833 -13.049)" opacity="0.07"/>
  <path id="Path_83790" data-name="Path 83790" d="M35.75,24.046v0L34.071,22.1l1.68-1.835a.149.149,0,0,0-.113-.251h-.947a.15.15,0,0,0-.111.05l0,0L33.4,21.341,32.215,20H28.307a.307.307,0,0,0-.307.307v3.675a.307.307,0,0,0,.307.307H31.94a.309.309,0,0,0,.228-.1l1.194-1.319L34.523,24.2a.306.306,0,0,0,.231.105h.885a.15.15,0,0,0,.111-.254Zm-4.231-.657H29.055V22.54h2.358v-.813H29.055v-.8l2.6.007L32.7,22.1Z" transform="translate(-12.026 -13.242)" fill="#fff"/>
</svg>
