<svg xmlns="http://www.w3.org/2000/svg" width="11" height="11" viewBox="0 0 11 11"><defs><style>.a{fill:#5ad3ff;}.b{fill:#fff;}</style></defs><g transform="translate(13022 4478)"><g transform="translate(-13022 -4478)"><g transform="translate(0 0)"><circle class="a" cx="5.5" cy="5.5" r="5.5"/><path class="b" d="M13.816,21.258l-2.089-.194-.83-1.927a.167.167,0,0,0-.308,0l-.83,1.927-2.089.194a.167.167,0,0,0-.1.292l1.576,1.385L8.69,24.982a.167.167,0,0,0,.249.181l1.8-1.071,1.8,1.071a.167.167,0,0,0,.249-.181l-.461-2.047,1.576-1.385A.167.167,0,0,0,13.816,21.258Z" transform="translate(-5.21 -17.036)"/></g></g></g></svg>