<svg id="check" xmlns="http://www.w3.org/2000/svg" width="17" height="17" viewBox="0 0 17 17">
  <g id="Group_47332" data-name="Group 47332">
    <g id="Group_47331" data-name="Group 47331">
      <path id="Path_29287" data-name="Path 29287" d="M8.5,0A8.5,8.5,0,1,0,17,8.5,8.5,8.5,0,0,0,8.5,0Zm0,15.786A7.286,7.286,0,1,1,15.786,8.5,7.286,7.286,0,0,1,8.5,15.786Z" fill="#83bf11"/>
    </g>
  </g>
  <g id="Group_47334" data-name="Group 47334" transform="translate(3.635 4.865)">
    <g id="Group_47333" data-name="Group 47333">
      <path id="Path_29288" data-name="Path 29288" d="M111.719,136.913a.607.607,0,0,0-.844,0h0l-5.642,5.642-2-2a.607.607,0,0,0-.873.844l.015.015,2.429,2.429a.607.607,0,0,0,.859,0l6.071-6.071A.607.607,0,0,0,111.719,136.913Z" transform="translate(-102.19 -136.743)" fill="#83bf11"/>
    </g>
  </g>
</svg>
