<?xml version="1.0" encoding="utf-8"?>
<!-- Generator: Adobe Illustrator 22.1.0, SVG Export Plug-In . SVG Version: 6.00 Build 0)  -->
<svg version="1.1" id="Layer_1" xmlns="http://www.w3.org/2000/svg" xmlns:xlink="http://www.w3.org/1999/xlink" x="0px" y="0px"
	 viewBox="0 0 16 16" style="enable-background:new 0 0 16 16;" xml:space="preserve">
<style type="text/css">
	.st0{clip-path:url(#SVGID_2_);}
	.st1{opacity:0.9;fill:#424158;}
	.st2{fill:#FFFFFF;}
	.st3{clip-path:url(#SVGID_4_);}
	.st4{opacity:0.9;fill:#E1E1E1;}
</style>
<g>
	<defs>
		<rect id="SVGID_1_" width="16" height="16"/>
	</defs>
	<clipPath id="SVGID_2_">
		<use xlink:href="#SVGID_1_"  style="overflow:visible;"/>
	</clipPath>
	<g class="st0">
		<circle class="st1" cx="8" cy="8" r="8"/>
		<g>
			<path class="st2" d="M10.6,6.6L9.2,8l1.3,1.3c0.2,0.2,0.2,0.4,0,0.5l-0.7,0.7c-0.2,0.2-0.4,0.2-0.5,0L8,9.2l-1.4,1.4
				c-0.2,0.2-0.4,0.2-0.5,0L5.4,9.9c-0.2-0.2-0.2-0.4,0-0.5L6.8,8L5.5,6.7c-0.2-0.2-0.2-0.4,0-0.5l0.7-0.7c0.2-0.2,0.4-0.2,0.5,0
				L8,6.8l1.4-1.4c0.2-0.2,0.4-0.2,0.5,0l0.6,0.6C10.7,6.2,10.7,6.4,10.6,6.6z"/>
		</g>
	</g>
</g>
</svg>
