<svg xmlns="http://www.w3.org/2000/svg" xmlns:xlink="http://www.w3.org/1999/xlink" width="258.52" height="22.37" viewBox="0 0 258.52 22.37">
  <defs>
    <clipPath id="clip-path">
      <rect id="Rectangle_12545" data-name="Rectangle 12545" width="52.52" height="18.273" fill="#54536e"/>
    </clipPath>
  </defs>
  <g id="Group_58640" data-name="Group 58640" transform="translate(-855 -653)">
    <g id="Amazon" transform="translate(855 656)">
      <g id="Group_45612" data-name="Group 45612" transform="translate(7.469 9.654)">
        <path id="Path_27834" data-name="Path 27834" d="M229.121,320.155a20.2,20.2,0,0,1-11.408,3.487,20.643,20.643,0,0,1-13.935-5.316c-.289-.261-.031-.617.316-.415a28.045,28.045,0,0,0,13.943,3.7,27.74,27.74,0,0,0,10.635-2.176C229.194,319.213,229.632,319.778,229.121,320.155Z" transform="translate(-203.654 -317.297)" fill="#54536e"/>
        <path id="Path_27835" data-name="Path 27835" d="M330.338,316.268c-.395-.505-2.608-.239-3.6-.121-.3.036-.348-.227-.076-.418,1.766-1.24,4.659-.882,4.995-.467s-.089,3.32-1.744,4.7c-.254.213-.5.1-.384-.182C329.9,318.856,330.733,316.774,330.338,316.268Z" transform="translate(-303.587 -314.875)" fill="#54536e"/>
      </g>
      <path id="Path_27836" data-name="Path 27836" d="M326.882,265.862v-1.2a.3.3,0,0,1,.306-.305h5.4a.3.3,0,0,1,.312.3v1.034a1.687,1.687,0,0,1-.407.759l-2.8,3.994a5.989,5.989,0,0,1,3.081.661.551.551,0,0,1,.286.47v1.286c0,.177-.194.382-.4.276a6.221,6.221,0,0,0-5.707.01c-.188.1-.384-.1-.384-.279v-1.222a1.453,1.453,0,0,1,.2-.828l3.241-4.65h-2.822A.3.3,0,0,1,326.882,265.862Z" transform="translate(-296.194 -264.114)" fill="#54536e"/>
      <path id="Path_27837" data-name="Path 27837" d="M214.067,272.712h-1.643a.31.31,0,0,1-.294-.278V264a.31.31,0,0,1,.317-.3h1.53a.31.31,0,0,1,.3.283v1.1h.031a2.257,2.257,0,0,1,4.295,0,2.427,2.427,0,0,1,4.172-.639,4.476,4.476,0,0,1,.414,2.644v5.322a.31.31,0,0,1-.317.3H221.23a.308.308,0,0,1-.3-.3v-4.471a10.784,10.784,0,0,0-.046-1.58.857.857,0,0,0-.966-.727,1.09,1.09,0,0,0-.982.692,5.1,5.1,0,0,0-.153,1.615v4.47a.31.31,0,0,1-.317.3h-1.641a.309.309,0,0,1-.3-.3v-4.471c0-.941.153-2.325-1.012-2.325-1.181,0-1.135,1.349-1.135,2.325v4.47A.31.31,0,0,1,214.067,272.712Z" transform="translate(-203.081 -263.437)" fill="#54536e"/>
      <path id="Path_27838" data-name="Path 27838" d="M369.324,263.519c2.439,0,3.758,2.094,3.758,4.756,0,2.573-1.457,4.614-3.758,4.614-2.393,0-3.7-2.094-3.7-4.7C365.627,265.56,366.946,263.519,369.324,263.519Zm.015,1.721c-1.212,0-1.288,1.65-1.288,2.68s-.015,3.23,1.273,3.23c1.273,0,1.335-1.775,1.335-2.857a7.8,7.8,0,0,0-.245-2.236A1.029,1.029,0,0,0,369.339,265.24Z" transform="translate(-327.968 -263.437)" fill="#54536e"/>
      <path id="Path_27839" data-name="Path 27839" d="M414.146,272.712h-1.637a.309.309,0,0,1-.295-.3l0-8.437a.311.311,0,0,1,.316-.275h1.524a.312.312,0,0,1,.292.236v1.29h.031a2.235,2.235,0,0,1,2.239-1.7,2.155,2.155,0,0,1,1.917.994,5.367,5.367,0,0,1,.429,2.626v5.307a.312.312,0,0,1-.315.266H417a.31.31,0,0,1-.293-.266v-4.579c0-.923.107-2.271-1.028-2.271a1.074,1.074,0,0,0-.951.674,3.747,3.747,0,0,0-.261,1.6v4.541A.314.314,0,0,1,414.146,272.712Z" transform="translate(-365.87 -263.437)" fill="#54536e"/>
      <path id="Path_27840" data-name="Path 27840" d="M283.99,268.328a3.226,3.226,0,0,1-.307,1.743,1.335,1.335,0,0,1-1.138.747c-.63,0-1-.48-1-1.192,0-1.4,1.255-1.654,2.444-1.654Zm1.657,4.006a.34.34,0,0,1-.388.038,4.016,4.016,0,0,1-.942-1.095,3.257,3.257,0,0,1-2.709,1.194,2.332,2.332,0,0,1-2.459-2.561,2.791,2.791,0,0,1,1.752-2.686,11.361,11.361,0,0,1,3.09-.569v-.213a2.1,2.1,0,0,0-.2-1.192,1.1,1.1,0,0,0-.922-.427,1.251,1.251,0,0,0-1.321.987.347.347,0,0,1-.285.3l-1.593-.172a.289.289,0,0,1-.245-.343c.366-1.932,2.111-2.516,3.675-2.516a3.728,3.728,0,0,1,2.475.818c.8.747.722,1.743.722,2.828v2.56a2.244,2.244,0,0,0,.62,1.523.31.31,0,0,1-.006.437c-.335.281-.932.8-1.26,1.091Z" transform="translate(-257.608 -263.081)" fill="#54536e"/>
      <path id="Path_27841" data-name="Path 27841" d="M168.422,268.328a3.224,3.224,0,0,1-.307,1.743,1.334,1.334,0,0,1-1.138.747c-.63,0-1-.48-1-1.192,0-1.4,1.255-1.654,2.444-1.654Zm1.657,4.006a.34.34,0,0,1-.388.038,4.013,4.013,0,0,1-.942-1.095,3.257,3.257,0,0,1-2.709,1.194,2.332,2.332,0,0,1-2.459-2.561,2.791,2.791,0,0,1,1.752-2.686,11.36,11.36,0,0,1,3.09-.569v-.213a2.106,2.106,0,0,0-.2-1.192,1.1,1.1,0,0,0-.922-.427,1.251,1.251,0,0,0-1.321.987.347.347,0,0,1-.286.3l-1.592-.172a.289.289,0,0,1-.245-.343c.366-1.932,2.111-2.516,3.674-2.516a3.727,3.727,0,0,1,2.475.818c.8.747.722,1.743.722,2.828v2.56a2.245,2.245,0,0,0,.62,1.523.31.31,0,0,1-.005.437c-.336.281-.932.8-1.26,1.091Z" transform="translate(-163.58 -263.081)" fill="#54536e"/>
    </g>
    <g id="Groupe_Renault" data-name="Groupe Renault" transform="translate(991 654)">
      <path id="Path_27842" data-name="Path 27842" d="M25.447,22.049c0-.663-.288-1.5-1.037-1.5-.892,0-1.238.894-1.238,3.143,0,2.163.2,3.517,1.238,3.517a1.319,1.319,0,0,0,1.123-1.442v-.923h-1.18V23.519h2.936v4.844H25.965v-.836h-.029a2.035,2.035,0,0,1-1.871,1.009c-2.217,0-2.678-1.672-2.678-4.758,0-3.027.691-4.555,3.023-4.555,1.987,0,2.793,1.009,2.793,2.855H25.447Zm0,0" transform="translate(-21.387 -19.223)" fill="#54536e"/>
      <path id="Path_27843" data-name="Path 27843" d="M51.316,23.821h.748a1.182,1.182,0,0,0,1.354-1.356,1.108,1.108,0,0,0-1.267-1.24h-.864v2.6ZM49.531,19.9h3.34a2.133,2.133,0,0,1,2.39,2.307,2,2,0,0,1-1.5,2.221v.029c1.239.173,1.411.836,1.44,2.739,0,.951.058,1.442.4,1.614v.086H53.648a2.007,2.007,0,0,1-.23-.951l-.058-1.73c-.029-.691-.346-1.124-1.065-1.124h-.979v3.805H49.531Zm0,0" transform="translate(-42.333 -19.726)" fill="#54536e"/>
      <path id="Path_27844" data-name="Path 27844" d="M79.488,27.21c1.066,0,1.239-.923,1.239-3.345,0-2.394-.173-3.345-1.239-3.345s-1.238.923-1.238,3.345.173,3.345,1.238,3.345m0-7.987c2.706,0,3.052,1.932,3.052,4.671s-.346,4.671-3.052,4.671-3.051-1.932-3.051-4.671.345-4.671,3.051-4.671" transform="translate(-62.359 -19.223)" fill="#54536e"/>
      <path id="Path_27845" data-name="Path 27845" d="M106.561,19.9v6.257c0,.894.2,1.557,1.065,1.557.835,0,1.065-.663,1.065-1.557V19.9h1.814v6.257a2.552,2.552,0,0,1-2.85,2.884c-1.469,0-2.85-.491-2.85-2.884V19.9Zm0,0" transform="translate(-83.471 -19.726)" fill="#54536e"/>
      <path id="Path_27846" data-name="Path 27846" d="M134.423,23.964h.806c.72,0,1.21-.433,1.21-1.356,0-.893-.346-1.384-1.267-1.384h-.749ZM132.609,19.9h3.167a2.389,2.389,0,0,1,2.476,2.682c0,1.874-1.151,2.71-2.85,2.71h-.979v3.575h-1.813Zm0,0" transform="translate(-104.165 -19.726)" fill="#54536e"/>
      <path id="Path_27847" data-name="Path 27847" d="M162.805,19.814v1.471h-3.2v2.1h3.023V24.86h-3.023v2.423h3.34v1.471h-5.125V19.785h4.981Zm0,0" transform="translate(-122.931 -19.641)" fill="#54536e"/>
      <path id="Path_27848" data-name="Path 27848" d="M24.832,69.359h.662c.777,0,1.209-.347,1.209-1.183a.984.984,0,0,0-1.123-1.095h-.748ZM23.248,65.9h2.937a1.882,1.882,0,0,1,2.1,2.048,1.749,1.749,0,0,1-1.324,1.96v.029c1.094.144,1.267.749,1.267,2.423,0,.836.057,1.268.346,1.413v.058H26.847a1.568,1.568,0,0,1-.2-.836l-.058-1.528c-.029-.634-.288-1.009-.95-1.009h-.863V73.8H23.191V65.9Zm0,0" transform="translate(-22.73 -53.961)" fill="#54536e"/>
      <path id="Path_27849" data-name="Path 27849" d="M52.5,65.814v1.3H49.679v1.874h2.649v1.3H49.679v2.134h2.937v1.3H48.066v-7.93H52.5Zm0,0" transform="translate(-41.243 -53.877)" fill="#54536e"/>
      <path id="Path_27850" data-name="Path 27850" d="M71.412,65.814l1.929,5.421h.029V65.814h1.468v7.93H73.025l-1.958-5.565h-.029v5.536H69.57v-7.93h1.842Zm0,0" transform="translate(-57.248 -53.877)" fill="#54536e"/>
      <path id="Path_27851" data-name="Path 27851" d="M94.977,70.83h1.554l-.777-3.575h-.029ZM94.746,65.9h1.987l2.1,7.93H97.165l-.375-1.673h-2.1l-.375,1.673h-1.67Zm0,0" transform="translate(-74.421 -53.961)" fill="#54536e"/>
      <path id="Path_27852" data-name="Path 27852" d="M119.954,65.9v5.536c0,.778.2,1.384.921,1.384.748,0,.921-.576.921-1.384V65.9h1.583v5.536A2.278,2.278,0,0,1,120.846,74c-1.3,0-2.533-.433-2.533-2.566V65.9Zm0,0" transform="translate(-93.524 -53.961)" fill="#54536e"/>
      <path id="Path_27853" data-name="Path 27853" d="M143.414,73.829V65.9H145v6.6h2.821v1.3h-4.406Zm0,0" transform="translate(-112.206 -53.961)" fill="#54536e"/>
      <path id="Path_27854" data-name="Path 27854" d="M163.089,65.9v1.3h-1.727v6.6h-1.583V67.2h-1.727V65.9Zm0,0" transform="translate(-123.1 -53.961)" fill="#54536e"/>
    </g>
    <g id="HP" transform="translate(938 653)">
      <path id="Path_27834-2" data-name="Path 27834" d="M12.032,23.22c-.111,0-.222,0-.332-.005l2.286-6.282h3.146a1.542,1.542,0,0,0,1.347-.943l2.48-6.811a1.415,1.415,0,0,0-1.42-2.027H15.174L11.513,17.213h0l-2.076,5.7A11.187,11.187,0,0,1,9.014,1.263L6.872,7.15h0L3.31,16.931H5.68L8.708,8.619H10.49L7.461,16.931H9.828l2.821-7.755a1.415,1.415,0,0,0-1.419-2.027H9.242L11.53.862c.167-.008.334-.012.5-.012a11.184,11.184,0,0,1,0,22.367ZM18.8,8.613H17.018l-2.494,6.842h1.781Z" transform="translate(-0.846 -0.85)" fill="#54536e"/>
    </g>
    <g id="Group_58639" data-name="Group 58639" transform="translate(1061 655)">
      <g id="Group_58638" data-name="Group 58638" transform="translate(0 0)" clip-path="url(#clip-path)">
        <path id="Path_83763" data-name="Path 83763" d="M25.616,6.185c-.007,1.077,0,2.155,0,3.232v.217H25.8c.8,0,1.6,0,2.4,0,.149,0,.194-.038.193-.19q-.006-4.414,0-8.828c0-.058-.007-.115-.01-.173H25.612V.655c0,1.088,0,2.177,0,3.265,0,.146-.032.2-.189.2q-1.3-.011-2.6,0c-.162,0-.2-.05-.2-.2.006-1.089,0-2.177,0-3.265v-.2H19.874V9.635h.173c.8,0,1.6,0,2.4,0,.147,0,.195-.035.194-.189-.007-1.089,0-2.177-.007-3.265,0-.155.047-.193.2-.192q1.3.009,2.6,0c.151,0,.194.043.193.194" transform="translate(-10.597 -0.238)" fill="#54536e"/>
        <path id="Path_83764" data-name="Path 83764" d="M7.827,4.986A4.152,4.152,0,0,0,8.07,3.072,2.884,2.884,0,0,0,6.123.425,7.144,7.144,0,0,0,3.613.015C2.941.006,2.268.04,1.6.074,1.117.1.639.162.16.194.022.2,0,.254,0,.373q0,2.215,0,4.43c0,1.471,0,2.943,0,4.414,0,.155.047.191.2.19.794-.007,1.588-.009,2.381,0,.171,0,.212-.049.21-.211-.009-.6,0-1.192-.007-1.788,0-.168.05-.218.216-.21.295.013.591.008.887,0a6.065,6.065,0,0,0,1.634-.225,3.325,3.325,0,0,0,2.311-1.99m-2.567-.7A1.654,1.654,0,0,1,3.746,5.55c-.261.022-.524.017-.786.034-.138.009-.181-.044-.18-.177,0-.585,0-1.17,0-1.755s0-1.159,0-1.738c0-.148.043-.208.2-.194a8.542,8.542,0,0,1,1.137.1A1.5,1.5,0,0,1,5.329,3.229a2.681,2.681,0,0,1-.07,1.053" transform="translate(0 -0.007)" fill="#54536e"/>
        <path id="Path_83765" data-name="Path 83765" d="M83.347,6.974a3.389,3.389,0,0,0,2.179-1.711,4.062,4.062,0,0,0,.38-1.955A2.945,2.945,0,0,0,83.767.361,7.449,7.449,0,0,0,81.442.017c-.677-.008-1.356.026-2.033.06-.463.023-.924.087-1.387.112-.181.01-.19.1-.19.237q0,4.371,0,8.743a.865.865,0,0,1,0,.1c-.011.108.037.141.143.14.47,0,.941,0,1.412,0h1.227v-.2c0-.612,0-1.225,0-1.837,0-.127.032-.174.165-.17.306.009.613.007.92,0a6.026,6.026,0,0,0,1.65-.228m-2.578-1.39c-.109.006-.156-.027-.156-.146q.006-1.787,0-3.574c0-.106.036-.147.143-.141s.24,0,.361,0c0-.014.005-.027.007-.04a8.4,8.4,0,0,1,.927.173,1.467,1.467,0,0,1,1.08,1.252,2.805,2.805,0,0,1-.033,1.1,1.663,1.663,0,0,1-1.545,1.337c-.261.022-.524.02-.786.033" transform="translate(-41.502 -0.008)" fill="#54536e"/>
        <path id="Path_83766" data-name="Path 83766" d="M103.121,4.649a5.375,5.375,0,0,0-1.525-.781c-.459-.173-.926-.33-1.373-.531a1.566,1.566,0,0,1-.537-.414.588.588,0,0,1,.148-.9,1.558,1.558,0,0,1,.578-.205,5.708,5.708,0,0,1,2.1.152c.281.063.555.151.843.231a1.9,1.9,0,0,0,0-.213c-.06-.514-.139-1.027-.176-1.544-.014-.2-.13-.2-.253-.217-.634-.076-1.267-.165-1.9-.211A6.047,6.047,0,0,0,98.623.3a2.524,2.524,0,0,0-1.777,3.136A2.339,2.339,0,0,0,98.2,5.091c.517.256,1.069.437,1.6.666a9.615,9.615,0,0,1,1.045.5.708.708,0,0,1,.331.766.751.751,0,0,1-.526.615,1.957,1.957,0,0,1-.412.1,5.914,5.914,0,0,1-2.225-.184c-.5-.122-.99-.293-1.491-.443.086.614.178,1.239.261,1.865.018.139.1.187.218.222a9.817,9.817,0,0,0,2.174.373,7.631,7.631,0,0,0,2.615-.241,2.988,2.988,0,0,0,1.781-1.2,2.925,2.925,0,0,0,.419-1.7,2.2,2.2,0,0,0-.865-1.774" transform="translate(-51.467 0)" fill="#54536e"/>
        <path id="Path_83767" data-name="Path 83767" d="M56.268,7.805c-.259,0-.259,0-.259-.257V.642c0-.219,0-.219-.224-.219H53.244v9.19c.045,0,.077.009.109.009q2.406,0,4.812,0c.116,0,.148-.051.17-.148.095-.42.195-.839.29-1.259.029-.13.051-.261.081-.413H56.268" transform="translate(-28.391 -0.226)" fill="#54536e"/>
        <path id="Path_83768" data-name="Path 83768" d="M45.326.416c-.815.006-1.631,0-2.447,0-.048,0-.1.006-.159.01,0,.063-.008.106-.008.15q0,4.438,0,8.875c0,.125.031.169.165.168q1.223-.009,2.447,0c.124,0,.17-.027.17-.162q-.006-4.437,0-8.874c0-.127-.032-.169-.165-.168" transform="translate(-22.774 -0.222)" fill="#54536e"/>
        <path id="Path_83769" data-name="Path 83769" d="M69.825,9.634c.152,0,.191-.042.191-.192q-.006-4.412,0-8.825c0-.057-.007-.115-.01-.179h-2.75V9.631h.175c.8,0,1.6,0,2.4,0" transform="translate(-35.861 -0.234)" fill="#54536e"/>
        <path id="Path_83770" data-name="Path 83770" d="M18.42,25.351c-.2,0-.394.008-.591,0-.139-.007-.175.046-.174.179.006.793,0,1.586.007,2.379,0,.166-.045.214-.211.212-1.051-.007-2.1,0-3.154,0-.262,0-.262,0-.262-.258,0-.777,0-1.553,0-2.33,0-.136-.043-.185-.179-.178a4.487,4.487,0,0,1-.526,0c-.15-.01-.181.051-.181.19q.006,2.995,0,5.989c0,.057.007.114.012.181.239,0,.458-.01.676,0,.153.009.2-.043.195-.193-.007-.8,0-1.6-.006-2.4,0-.157.049-.205.207-.2q1.618.008,3.236,0c.144,0,.187.042.186.187-.006.8,0,1.6,0,2.4v.2h.881a.388.388,0,0,0,.015-.065q0-3.076,0-6.153c0-.1-.043-.132-.137-.131" transform="translate(-7.013 -13.516)" fill="#54536e"/>
        <path id="Path_83771" data-name="Path 83771" d="M60.259,28.657a1.3,1.3,0,0,0-1.032-1.189,1.561,1.561,0,0,0-1.482.459c-.037.036-.076.07-.147.137v-.212c0-.776,0-1.552,0-2.329,0-.14-.044-.183-.178-.175s-.274,0-.41,0c-.216,0-.217,0-.217.214q0,2.969,0,5.937a.465.465,0,0,0,0,.13c.009.028.043.07.068.07.238.005.477,0,.73,0v-.2c0-.8.024-1.6-.011-2.394a.823.823,0,0,1,.4-.79c.032-.021.063-.044.095-.065a.856.856,0,0,1,1.4.572,1.124,1.124,0,0,1,.014.228q0,1.23,0,2.46v.193c.229,0,.436-.009.642,0,.139.008.163-.049.162-.17,0-.705,0-1.411,0-2.116,0-.256-.011-.513-.036-.768" transform="translate(-30.284 -13.516)" fill="#54536e"/>
        <path id="Path_83772" data-name="Path 83772" d="M95.053,31.268a1.676,1.676,0,0,0-1.24-1.388,1.825,1.825,0,0,0-1.969.6,2.292,2.292,0,0,0-.482,1.544,2.035,2.035,0,0,0,1.785,2.115,2.891,2.891,0,0,0,1.82-.407.222.222,0,0,0,.085-.154c.01-.213,0-.426,0-.675a2.609,2.609,0,0,1-1.43.492,1.336,1.336,0,0,1-1.213-.549,1.284,1.284,0,0,1-.239-.8h2.972a7.4,7.4,0,0,0-.095-.78m-2.839.3a1.071,1.071,0,0,1,1-1.061.983.983,0,0,1,1.108,1.061Z" transform="translate(-48.718 -15.893)" fill="#54536e"/>
        <path id="Path_83773" data-name="Path 83773" d="M30.786,31.257a1.676,1.676,0,0,0-1.329-1.4,1.819,1.819,0,0,0-1.916.671,2.33,2.33,0,0,0-.442,1.525,2.032,2.032,0,0,0,1.765,2.084,2.958,2.958,0,0,0,1.837-.4.188.188,0,0,0,.086-.122c.009-.227,0-.455,0-.7-.052.031-.084.049-.115.068a2.529,2.529,0,0,1-1.588.407,1.306,1.306,0,0,1-1.171-1.337h2.966a6.955,6.955,0,0,0-.1-.8m-2.849.31a1.1,1.1,0,0,1,1.19-1.059.982.982,0,0,1,.926,1.059Z" transform="translate(-14.449 -15.896)" fill="#54536e"/>
        <path id="Path_83774" data-name="Path 83774" d="M39.738,33.543c-.226.1-.327.038-.338-.211,0-.055,0-.109,0-.164,0-.7,0-1.41-.012-2.114a1.125,1.125,0,0,0-.718-1.078,1.811,1.811,0,0,0-.583-.146,1.789,1.789,0,0,0-1.482.461.238.238,0,0,0-.081.133c-.007.26,0,.519,0,.794.171-.135.318-.263.478-.374a1.478,1.478,0,0,1,.992-.263c.4.033.628.329.631.828a.2.2,0,0,1-.157.224c-.338.107-.672.226-1.006.346a1.779,1.779,0,0,0-.772.508,1.009,1.009,0,0,0,.566,1.65,1.47,1.47,0,0,0,.817-.1c.18-.073.348-.176.522-.265.177.279.211.306.411.357a1.177,1.177,0,0,0,.966-.253.134.134,0,0,0,.043-.1c.006-.119,0-.238,0-.386-.112.06-.19.109-.274.147m-1.121-1.1c0,.235,0,.47,0,.7a.247.247,0,0,1-.051.163.954.954,0,0,1-.833.285.535.535,0,0,1-.466-.425.558.558,0,0,1,.215-.641,6.793,6.793,0,0,1,.726-.37c.12-.057.251-.094.412-.153Z" transform="translate(-19.432 -15.901)" fill="#54536e"/>
        <path id="Path_83775" data-name="Path 83775" d="M78.366,33.481c-.346.2-.462.135-.463-.26,0-.727,0-1.454-.009-2.182a1.084,1.084,0,0,0-.613-1.011,1.913,1.913,0,0,0-.685-.2,1.794,1.794,0,0,0-1.461.434.3.3,0,0,0-.107.172c-.012.254-.005.509-.005.8.1-.087.176-.155.253-.221a1.62,1.62,0,0,1,1.184-.434.633.633,0,0,1,.632.534c.02.106.019.217.03.325s-.035.156-.135.189c-.311.1-.619.212-.929.319a1.915,1.915,0,0,0-.831.506A1,1,0,0,0,75,33.486a.918.918,0,0,0,.756.649,1.573,1.573,0,0,0,1.027-.19c.105-.055.2-.121.307-.182.176.286.217.317.418.368a1.173,1.173,0,0,0,.953-.246.133.133,0,0,0,.049-.094c.006-.123,0-.247,0-.393-.066.036-.108.058-.149.082m-1.25-.339a.331.331,0,0,1-.1.218.918.918,0,0,1-.77.236.548.548,0,0,1-.468-.422.591.591,0,0,1,.169-.614.727.727,0,0,1,.184-.135c.314-.144.631-.281.972-.432.01.091.02.138.02.184,0,.322.007.644,0,.965" transform="translate(-39.963 -15.9)" fill="#54536e"/>
        <path id="Path_83776" data-name="Path 83776" d="M69.554,33.216a2.455,2.455,0,0,1-1.152.178,1.27,1.27,0,0,1-1.153-.9,1.464,1.464,0,0,1,.376-1.6,1.361,1.361,0,0,1,1.49-.2c.173.061.336.151.529.239,0-.246,0-.474,0-.7a.167.167,0,0,0-.137-.19,6.821,6.821,0,0,0-.837-.21,1.987,1.987,0,0,0-1.517.384,2.2,2.2,0,0,0-.789,2.015,1.883,1.883,0,0,0,1.03,1.676,2.806,2.806,0,0,0,2.261.05.141.141,0,0,0,.074-.105c.007-.223,0-.446,0-.7-.08.029-.13.049-.18.066" transform="translate(-35.384 -15.897)" fill="#54536e"/>
        <path id="Path_83777" data-name="Path 83777" d="M50.433,32.064c-.019-.7-.015-1.4-.025-2.1,0-.127.058-.157.171-.156.339,0,.679,0,1.018,0,.11,0,.16-.032.153-.15a3.931,3.931,0,0,1,0-.426c.006-.108-.035-.141-.142-.14-.317.006-.635,0-.952,0-.246,0-.246,0-.246-.253V28.3l-.044-.008-1.47,1.517H49.4c.216,0,.216,0,.218.222,0,.721,0,1.443.013,2.164a1.086,1.086,0,0,0,.8,1.076,1.945,1.945,0,0,0,1.448-.141.173.173,0,0,0,.087-.119c.009-.211,0-.422,0-.617-.286.08-.557.176-.837.229a.563.563,0,0,1-.7-.563" transform="translate(-26.072 -15.088)" fill="#54536e"/>
        <path id="Path_83778" data-name="Path 83778" d="M46.564,25.564c0-.214,0-.214-.22-.215-.131,0-.264.01-.394,0-.163-.016-.2.049-.2.2q.007,2.978,0,5.955v.2c.219,0,.411-.011.6,0,.166.013.215-.04.213-.208-.007-1.028,0-2.056,0-3.084q0-1.427,0-2.854" transform="translate(-24.396 -13.515)" fill="#54536e"/>
        <path id="Path_83779" data-name="Path 83779" d="M85.819,30.094a5.867,5.867,0,0,0-.487.573c-.035.043-.067.09-.1.134l-.036-.013v-.883c-.227,0-.425.011-.62,0-.159-.012-.189.051-.189.2.005,1.268,0,2.537,0,3.806a.4.4,0,0,0,.005.114c.007.025.037.063.057.063.243,0,.487,0,.741,0v-.207c0-.683,0-1.367,0-2.051a1.351,1.351,0,0,1,.449-1.019.741.741,0,0,1,.878-.148,5.211,5.211,0,0,1,.488.3l.422-.7c-.159-.108-.292-.214-.439-.3a.9.9,0,0,0-1.173.13" transform="translate(-44.997 -15.894)" fill="#54536e"/>
      </g>
    </g>
  </g>
</svg>
