<svg xmlns="http://www.w3.org/2000/svg" width="17" height="17" viewBox="0 0 17 17">
  <g id="Group_44974" data-name="Group 44974" transform="translate(0.273 -0.004)">
    <circle id="Ellipse_921" data-name="Ellipse 921" cx="8.5" cy="8.5" r="8.5" transform="translate(-0.273 0.004)" fill="#555469" opacity="0.2"/>
    <path id="Path_27669" data-name="Path 27669" d="M818.395,288.742l-1.7,1.7,1.654,1.654a.477.477,0,0,1,0,.674l-.836.836a.475.475,0,0,1-.674,0l-1.654-1.653-1.689,1.689a.477.477,0,0,1-.674,0l-.755-.755a.477.477,0,0,1,0-.674l1.689-1.689-1.654-1.654a.477.477,0,0,1,0-.674l.837-.836a.476.476,0,0,1,.675,0l1.653,1.653,1.7-1.7a.477.477,0,0,1,.674,0l.755.755A.477.477,0,0,1,818.395,288.742Z" transform="translate(-806.963 -281.722)" fill="#fff"/>
  </g>
</svg>
