<svg xmlns="http://www.w3.org/2000/svg" width="30.001" height="30.001" viewBox="0 0 30.001 30.001"><defs><style>.a{fill:#b5c2c9;stroke:rgba(0,0,0,0);stroke-miterlimit:10;}</style></defs><g transform="translate(-4218.5 -1882.5)"><g transform="translate(2056.9 1356.906)"><path class="a" d="M-2042.4-1327.906a14.407,14.407,0,0,1-10.254-4.247,14.4,14.4,0,0,1-4.247-10.253,14.405,14.405,0,0,1,4.247-10.253,14.406,14.406,0,0,1,10.254-4.247,14.4,14.4,0,0,1,10.253,4.247,14.406,14.406,0,0,1,4.247,10.253,14.406,14.406,0,0,1-4.247,10.253A14.4,14.4,0,0,1-2042.4-1327.906Zm-6.467-15.75a1.251,1.251,0,0,0-1.25,1.25,1.251,1.251,0,0,0,1.25,1.25h5.216v5.216a1.251,1.251,0,0,0,1.25,1.25,1.251,1.251,0,0,0,1.25-1.25v-5.216h5.216a1.252,1.252,0,0,0,1.25-1.25,1.251,1.251,0,0,0-1.25-1.25h-5.216v-5.217a1.251,1.251,0,0,0-1.25-1.25,1.251,1.251,0,0,0-1.25,1.25v5.217Z" transform="translate(4219 1883)"/></g></g></svg>