<svg id="Layer_1" data-name="Layer 1" xmlns="http://www.w3.org/2000/svg" xmlns:xlink="http://www.w3.org/1999/xlink" viewBox="0 0 24 24"><defs><style>.cls-1{fill:none;}.cls-2{clip-path:url(#clip-path);}.cls-3{fill:#020202;opacity:0.2;isolation:isolate;}</style><clipPath id="clip-path"><rect class="cls-1" width="24" height="24"/></clipPath></defs><title>Untitled-1</title><g class="cls-2"><path class="cls-3" d="M19,3.5H5a3,3,0,0,0-3,3v11a3,3,0,0,0,3,3H19a3,3,0,0,0,3-3V6.5A3,3,0,0,0,19,3.5Zm1,12.6v1.4a1,1,0,0,1-1,1H5a1,1,0,0,1-1-1V6.5a1,1,0,0,1,1-1H19a1,1,0,0,1,1,1v9.6Z"/><rect class="cls-3" x="5.06" y="8.63" width="2" height="2" rx="0.5"/><rect class="cls-3" x="5.06" y="13.68" width="3" height="2" rx="0.5"/><rect class="cls-3" x="8.63" y="13.68" width="3" height="2" rx="0.5"/><rect class="cls-3" x="12.21" y="13.68" width="3" height="2" rx="0.5"/><rect class="cls-3" x="15.78" y="13.68" width="3" height="2" rx="0.5"/></g></svg>