<svg xmlns="http://www.w3.org/2000/svg" width="20" height="20" viewBox="0 0 20 20">
  <g id="Group_56333" data-name="Group 56333" transform="translate(-1175.154 -196.654)">
    <g id="Group_56313" data-name="Group 56313" transform="translate(1175.5 197)">
      <rect id="Rectangle_10309" data-name="Rectangle 10309" width="20" height="20" rx="4" transform="translate(-0.346 -0.346)" fill="#fff"/>
    </g>
    <g id="Group_56332" data-name="Group 56332" transform="translate(1178.823 202.385)">
      <g id="Group_56314" data-name="Group 56314" transform="translate(0 0)">
        <g id="Union_36" data-name="Union 36" transform="translate(2478.668 7593.731)" fill="#fff">
          <path d="M -2469.41796875 -7585.693359375 C -2470.21337890625 -7585.693359375 -2470.973876953125 -7585.93798828125 -2471.6171875 -7586.40087890625 L -2471.9091796875 -7586.611328125 L -2472.201171875 -7586.40087890625 C -2472.844482421875 -7585.93798828125 -2473.604736328125 -7585.693359375 -2474.399658203125 -7585.693359375 C -2476.477783203125 -7585.693359375 -2478.16845703125 -7587.38427734375 -2478.16845703125 -7589.46240234375 C -2478.16845703125 -7591.54052734375 -2476.477783203125 -7593.2314453125 -2474.399658203125 -7593.2314453125 C -2473.604736328125 -7593.2314453125 -2472.844482421875 -7592.98681640625 -2472.201171875 -7592.52392578125 L -2471.9091796875 -7592.3134765625 L -2471.6171875 -7592.52392578125 C -2470.973876953125 -7592.98681640625 -2470.21337890625 -7593.2314453125 -2469.41796875 -7593.2314453125 C -2467.339599609375 -7593.2314453125 -2465.64892578125 -7591.54052734375 -2465.64892578125 -7589.46240234375 C -2465.64892578125 -7587.38427734375 -2467.339599609375 -7585.693359375 -2469.41796875 -7585.693359375 Z" stroke="none"/>
          <path d="M -2469.41796875 -7586.193359375 C -2467.615478515625 -7586.193359375 -2466.14892578125 -7587.65966796875 -2466.14892578125 -7589.46240234375 C -2466.14892578125 -7591.26513671875 -2467.615478515625 -7592.7314453125 -2469.41796875 -7592.7314453125 C -2470.10791015625 -7592.7314453125 -2470.767333984375 -7592.51953125 -2471.3251953125 -7592.1181640625 L -2471.9091796875 -7591.69775390625 L -2472.4931640625 -7592.1181640625 C -2473.051025390625 -7592.51953125 -2473.710205078125 -7592.7314453125 -2474.399658203125 -7592.7314453125 C -2476.2021484375 -7592.7314453125 -2477.66845703125 -7591.26513671875 -2477.66845703125 -7589.46240234375 C -2477.66845703125 -7587.65966796875 -2476.2021484375 -7586.193359375 -2474.399658203125 -7586.193359375 C -2473.710205078125 -7586.193359375 -2473.051025390625 -7586.4052734375 -2472.4931640625 -7586.806640625 L -2471.9091796875 -7587.22705078125 L -2471.3251953125 -7586.806640625 C -2470.767333984375 -7586.4052734375 -2470.10791015625 -7586.193359375 -2469.41796875 -7586.193359375 M -2469.41796875 -7585.193359375 C -2470.347900390625 -7585.193359375 -2471.208251953125 -7585.49072265625 -2471.9091796875 -7585.9951171875 C -2472.610107421875 -7585.49072265625 -2473.47021484375 -7585.193359375 -2474.399658203125 -7585.193359375 C -2476.757080078125 -7585.193359375 -2478.66845703125 -7587.10498046875 -2478.66845703125 -7589.46240234375 C -2478.66845703125 -7591.81982421875 -2476.757080078125 -7593.7314453125 -2474.399658203125 -7593.7314453125 C -2473.47021484375 -7593.7314453125 -2472.610107421875 -7593.43408203125 -2471.9091796875 -7592.9296875 C -2471.208251953125 -7593.43408203125 -2470.347900390625 -7593.7314453125 -2469.41796875 -7593.7314453125 C -2467.060546875 -7593.7314453125 -2465.14892578125 -7591.81982421875 -2465.14892578125 -7589.46240234375 C -2465.14892578125 -7587.10498046875 -2467.060546875 -7585.193359375 -2469.41796875 -7585.193359375 Z" stroke="none" fill="#8796c1"/>
        </g>
      </g>
      <line id="Line_2774" data-name="Line 2774" x1="3.023" transform="translate(5.336 4.269)" fill="none" stroke="#8796c1" stroke-width="1"/>
      <line id="Line_2776" data-name="Line 2776" x1="4.446" transform="translate(3.914 2.846)" fill="none" stroke="#8796c1" stroke-width="1"/>
      <line id="Line_2775" data-name="Line 2775" x1="2.134" transform="translate(6.225 5.692)" fill="none" stroke="#8796c1" stroke-width="1"/>
    </g>
  </g>
</svg>
