<svg xmlns="http://www.w3.org/2000/svg" width="20" height="20" viewBox="0 0 20 20">
  <g id="Group_64287" data-name="Group 64287" transform="translate(22582 -994)">
    <circle id="Ellipse_4172" data-name="Ellipse 4172" cx="10" cy="10" r="10" transform="translate(-22582 994)" opacity="0.6"/>
    <g id="Group_56273" data-name="Group 56273" transform="translate(-22578.666 998.167)">
      <rect id="Rectangle_10897" data-name="Rectangle 10897" width="13.333" height="13.333" fill="none"/>
      <path id="Path_59540" data-name="Path 59540" d="M75.776,109.97a3.244,3.244,0,0,0-2.684,1.407l-.124.158-.083-.106a3.2,3.2,0,0,0-2.69-1.459,3.1,3.1,0,0,0-3.21,3.209c0,2.745,4.971,6.792,5.333,7.083a.916.916,0,0,0,1.265,0c.364-.294,5.4-4.4,5.4-7.083A3.1,3.1,0,0,0,75.776,109.97Z" transform="translate(-66.318 -108.636)" fill="none" stroke="#fff" stroke-width="1"/>
    </g>
  </g>
</svg>
