<svg xmlns="http://www.w3.org/2000/svg" width="11" height="11" viewBox="0 0 11 11"><defs><style>.a{fill:#ffd800;}.b{fill:#fff;}</style></defs><g transform="translate(-513 -282)"><circle class="a" cx="5.5" cy="5.5" r="5.5" transform="translate(513 282)"/><path class="b" d="M13.2,21.041l-1.885-.175-.749-1.739a.151.151,0,0,0-.277,0L9.54,20.866l-1.885.175a.151.151,0,0,0-.086.264l1.422,1.249L8.575,24.4a.151.151,0,0,0,.224.163l1.628-.966,1.628.966a.151.151,0,0,0,.224-.163l-.416-1.847L13.285,21.3A.151.151,0,0,0,13.2,21.041Z" transform="translate(507.982 265.487)"/></g></svg>