<svg xmlns="http://www.w3.org/2000/svg" xmlns:xlink="http://www.w3.org/1999/xlink" width="20" height="20" viewBox="0 0 20 20">
  <defs>
    <clipPath id="clip-path">
      <rect id="Rectangle_10743" data-name="Rectangle 10743" width="20" height="20" fill="#fff" stroke="#707070" stroke-width="1"/>
    </clipPath>
  </defs>
  <g id="Mask_Group_31" data-name="Mask Group 31" clip-path="url(#clip-path)">
    <g id="Group_56563" data-name="Group 56563" transform="translate(0.833 3.333)">
      <g id="Union_41" data-name="Union 41" transform="translate(0)" fill="rgba(131,191,19,0.3)">
        <path d="M 14.02259063720703 11.60050010681152 L 3.253976106643677 11.60050010681152 L 3.093470811843872 11.58094024658203 C 1.842990875244141 11.42854976654053 0.9000009298324585 10.39064025878906 0.9000009298324585 9.166680335998535 C 0.9000009298324585 8.070070266723633 1.661670923233032 7.104259967803955 2.752240896224976 6.817989826202393 L 3.130230903625488 6.718770027160645 L 3.315800905227661 6.374839782714844 C 3.646550893783569 5.761839866638184 4.230690956115723 5.312599658966064 4.918430805206299 5.142299652099609 L 5.65963077545166 4.958759784698486 L 5.599300861358643 4.197559833526611 C 5.59303092956543 4.118579864501953 5.589860916137695 4.038169860839844 5.589860916137695 3.958579778671265 C 5.589860916137695 2.272069931030273 7.003201007843018 0.8999998569488525 8.74043083190918 0.8999998569488525 C 10.04919052124023 0.8999998569488525 11.23582077026367 1.699709892272949 11.69321060180664 2.889979839324951 L 11.96517086029053 3.597679853439331 L 12.70877075195312 3.449879884719849 C 12.87470054626465 3.416899919509888 13.04567050933838 3.400179862976074 13.21694087982178 3.400179862976074 C 14.60146045684814 3.400179862976074 15.72785091400146 4.491819858551025 15.72785091400146 5.833620071411133 C 15.72785091400146 5.938159942626953 15.72098064422607 6.043279647827148 15.70743083953857 6.146059989929199 L 15.62723064422607 6.754459857940674 L 16.16428184509277 7.051349639892578 C 16.94717025756836 7.484129905700684 17.43350028991699 8.294679641723633 17.43350028991699 9.166680335998535 C 17.43350028991699 10.50848960876465 16.3071117401123 11.60013008117676 14.92259120941162 11.60013008117676 L 14.02259063720703 11.60013008117676 L 14.02259063720703 11.60050010681152 Z" stroke="none"/>
        <path d="M 13.12259101867676 10.70049953460693 L 13.12259101867676 10.70012950897217 L 14.92259120941162 10.70012950897217 C 15.81085109710693 10.70012950897217 16.53350067138672 10.01222991943359 16.53350067138672 9.166680335998535 C 16.53350067138672 8.622109413146973 16.22518157958984 8.11337947845459 15.72886085510254 7.839009761810303 L 14.65474128723145 7.245219707489014 L 14.81515121459961 6.028439998626709 C 14.82358074188232 5.964509963989258 14.82785129547119 5.898959636688232 14.82785129547119 5.833620071411133 C 14.82785129547119 4.988080024719238 14.10520076751709 4.300179958343506 13.21694087982178 4.300179958343506 C 13.10445117950439 4.300179958343506 12.99251079559326 4.311089992523193 12.88422107696533 4.332619667053223 L 11.39701080322266 4.628210067749023 L 10.85311126708984 3.212819814682007 C 10.52837085723877 2.367769956588745 9.679350852966309 1.799999833106995 8.74043083190918 1.799999833106995 C 7.499460697174072 1.799999833106995 6.489861011505127 2.768329858779907 6.489861011505127 3.958579778671265 C 6.489861011505127 4.01453971862793 6.492090702056885 4.071019649505615 6.496480941772461 4.126440048217773 L 6.617160797119141 5.648839950561523 L 5.134760856628418 6.015909671783447 C 4.692710876464844 6.125370025634766 4.318420886993408 6.411959648132324 4.107861042022705 6.802209854125977 L 3.736730813980103 7.490059852600098 L 2.980750799179077 7.688499927520752 C 2.285540819168091 7.870989799499512 1.800000905990601 8.478839874267578 1.800000905990601 9.166680335998535 C 1.800000905990601 9.93628978729248 2.402880907058716 10.59012031555176 3.202340841293335 10.68754959106445 L 3.308600902557373 10.70049953460693 L 13.12259101867676 10.70049953460693 M 14.92259120941162 12.5004997253418 L 2.984591007232666 12.5004997253418 L 2.984591007232666 12.47432994842529 C 1.302120923995972 12.26928997039795 9.078979701371281e-07 10.86682033538818 9.078979701371281e-07 9.166680335998535 C 9.078979701371281e-07 7.625659942626953 1.070140957832336 6.329040050506592 2.523741006851196 5.947479724884033 C 2.968590974807739 5.12300968170166 3.756590843200684 4.502810001373291 4.702110767364502 4.268680095672607 C 4.694000720977783 4.166369915008545 4.689860820770264 4.062920093536377 4.689860820770264 3.958579778671265 C 4.689860820770264 1.772289872169495 6.503330707550049 -1.373290956507844e-07 8.74043083190918 -1.373290956507844e-07 C 10.47613048553467 -1.373290956507844e-07 11.95700073242188 1.067399859428406 12.53332138061523 2.567149877548218 C 12.75414085388184 2.523259878158569 12.98286056518555 2.500179767608643 13.21694087982178 2.500179767608643 C 15.10102081298828 2.500179767608643 16.62785148620605 3.992329835891724 16.62785148620605 5.833620071411133 C 16.62785148620605 5.979350090026855 16.61827087402344 6.122900009155273 16.59971046447754 6.263689994812012 C 17.63484001159668 6.835919857025146 18.3335018157959 7.921509742736816 18.3335018157959 9.166680335998535 C 18.3335018157959 11.00796985626221 16.8062801361084 12.50012969970703 14.92259120941162 12.50012969970703 L 14.92259120941162 12.5004997253418 Z" stroke="none" fill="#83bf13"/>
      </g>
    </g>
    <path id="Path_60537" data-name="Path 60537" d="M3506.9,2602.547l1.285,1.284,2.5-2.5" transform="translate(-3498.795 -2591.748)" fill="none" stroke="#fff" stroke-linecap="round" stroke-linejoin="round" stroke-width="1.6"/>
  </g>
</svg>
