<svg xmlns="http://www.w3.org/2000/svg" xmlns:xlink="http://www.w3.org/1999/xlink" width="28" height="28" viewBox="0 0 28 28">
  <defs>
    <clipPath id="clip-path">
      <rect id="Rectangle_10092" data-name="Rectangle 10092" width="28" height="28" transform="translate(543 -2187)" fill="#54536e"/>
    </clipPath>
    <clipPath id="clip-path-2">
      <rect id="Rectangle_12546" data-name="Rectangle 12546" width="17.413" height="18.16" fill="#54536e"/>
    </clipPath>
  </defs>
  <g id="Mask_Group_133" data-name="Mask Group 133" transform="translate(-543 2187)" clip-path="url(#clip-path)">
    <g id="Group_58642" data-name="Group 58642" transform="translate(548 -2182)">
      <g id="Group_58641" data-name="Group 58641" clip-path="url(#clip-path-2)">
        <path id="Path_83780" data-name="Path 83780" d="M8.883,0a2.083,2.083,0,0,1,1.169.683c.259.267.538.515.8.779a.655.655,0,0,0,.613.193c.449-.072.9-.139,1.35-.195a1.591,1.591,0,0,1,1.877,1.4c.078.436.154.872.224,1.309a.66.66,0,0,0,.377.52c.411.208.817.426,1.221.645a1.584,1.584,0,0,1,.71,2.188c-.2.41-.393.82-.6,1.224a.685.685,0,0,0,0,.674c.2.388.387.783.578,1.176a1.594,1.594,0,0,1-.727,2.25c-.391.209-.778.423-1.174.621a.684.684,0,0,0-.392.549c-.072.455-.147.909-.239,1.36A1.587,1.587,0,0,1,12.757,16.7c-.449-.071-.9-.13-1.35-.2a.6.6,0,0,0-.532.179q-.506.5-1.02.986a1.583,1.583,0,0,1-2.3,0c-.329-.314-.66-.627-.98-.95a.678.678,0,0,0-.642-.2c-.448.075-.9.14-1.35.193a1.59,1.59,0,0,1-1.869-1.428c-.071-.431-.15-.861-.221-1.292a.649.649,0,0,0-.369-.506c-.4-.207-.8-.423-1.205-.637A1.592,1.592,0,0,1,.2,10.613c.19-.393.375-.789.578-1.176a.7.7,0,0,0,0-.706c-.207-.4-.4-.8-.592-1.208A1.586,1.586,0,0,1,.9,5.334C1.3,5.118,1.7,4.9,2.1,4.7a.693.693,0,0,0,.4-.564c.069-.449.146-.9.236-1.343a1.589,1.589,0,0,1,1.93-1.322c.443.071.888.129,1.332.193a.6.6,0,0,0,.534-.175c.274-.269.559-.527.827-.8A2.084,2.084,0,0,1,8.529,0Zm4.171,15.677a.535.535,0,0,0,.584-.452c.076-.4.163-.8.209-1.2a1.817,1.817,0,0,1,1.114-1.56c.359-.163.7-.365,1.05-.552a.548.548,0,0,0,.266-.825c-.2-.414-.4-.829-.607-1.24a1.619,1.619,0,0,1,0-1.53c.2-.39.385-.784.577-1.176.217-.444.142-.682-.291-.912-.391-.208-.781-.417-1.174-.622a1.634,1.634,0,0,1-.9-1.26c-.075-.46-.157-.919-.243-1.377a.537.537,0,0,0-.664-.473c-.45.065-.9.126-1.35.2a1.669,1.669,0,0,1-1.533-.5c-.312-.315-.635-.618-.954-.926a.547.547,0,0,0-.868,0q-.5.486-1.007.974A1.559,1.559,0,0,1,5.929,2.7Q5.2,2.607,4.472,2.5a.55.55,0,0,0-.709.5c-.072.377-.155.753-.2,1.134A1.823,1.823,0,0,1,2.444,5.705c-.359.163-.7.364-1.05.551a.546.546,0,0,0-.264.813c.2.414.4.829.607,1.24a1.624,1.624,0,0,1,0,1.546c-.2.4-.395.805-.591,1.209a.557.557,0,0,0,.285.859c.4.211.791.425,1.189.63a1.64,1.64,0,0,1,.909,1.272c.072.455.155.908.24,1.36a.543.543,0,0,0,.692.479c.45-.068.9-.128,1.35-.2a1.681,1.681,0,0,1,1.514.511c.313.314.635.618.955.925a.544.544,0,0,0,.855,0c.319-.307.644-.61.954-.926a1.7,1.7,0,0,1,1.6-.5c.465.081.935.135,1.367.2" transform="translate(0 -0.001)" fill="#54536e"/>
        <path id="Path_83781" data-name="Path 83781" d="M36.124,30.925c-.047.1-.088.213-.144.313a.73.73,0,0,1-.131.143L29.131,38.1a.646.646,0,0,1-.435.245.52.52,0,0,1-.437-.845,1.4,1.4,0,0,1,.121-.13Q31.751,34,35.123,30.626a.624.624,0,0,1,.458-.234.565.565,0,0,1,.544.532" transform="translate(-23.414 -25.289)" fill="#54536e"/>
        <path id="Path_83782" data-name="Path 83782" d="M29.868,29.839a1.919,1.919,0,1,1,1.925-1.906,1.914,1.914,0,0,1-1.925,1.906m.014-2.784a.869.869,0,0,0-.879.856.871.871,0,1,0,1.742.014.867.867,0,0,0-.863-.87" transform="translate(-23.264 -21.635)" fill="#54536e"/>
        <path id="Path_83783" data-name="Path 83783" d="M54.815,59.3A1.918,1.918,0,1,1,52.9,61.216,1.912,1.912,0,0,1,54.815,59.3m.007,2.782a.869.869,0,0,0,.867-.868.871.871,0,1,0-1.742.011.865.865,0,0,0,.876.857" transform="translate(-44.016 -49.345)" fill="#54536e"/>
      </g>
    </g>
  </g>
</svg>
