<svg xmlns="http://www.w3.org/2000/svg" xmlns:xlink="http://www.w3.org/1999/xlink" width="24" height="24" viewBox="0 0 24 24">
  <defs>
    <clipPath id="clip-path">
      <rect id="Rectangle_10414" data-name="Rectangle 10414" width="24" height="24" fill="none"/>
    </clipPath>
  </defs>
  <g id="Group_55533" data-name="Group 55533" transform="translate(2731.869 -1614.442)">
    <g id="Group_55884" data-name="Group 55884" transform="translate(-2731.869 1614.442)" clip-path="url(#clip-path)">
      <g id="Group_55883" data-name="Group 55883" transform="translate(1.934 1.956)">
        <path id="Path_60190" data-name="Path 60190" d="M-2712.03,1619.458h-9.55a5.044,5.044,0,0,0-3.829,1.471,5.045,5.045,0,0,0-1.471,3.829v9.482a5.126,5.126,0,0,0,1.494,3.8,5.127,5.127,0,0,0,3.792,1.5h9.625a5.252,5.252,0,0,0,3.752-1.439,5.269,5.269,0,0,0,1.47-3.864v-9.482a5.3,5.3,0,0,0-5.282-5.3Z" transform="translate(2726.878 -1619.457)" fill="rgba(135,150,193,0.3)"/>
        <path id="Path_60170" data-name="Path 60170" d="M-2712.03,1619.458h-9.55a5.044,5.044,0,0,0-3.829,1.471,5.045,5.045,0,0,0-1.471,3.829v9.482a5.126,5.126,0,0,0,1.494,3.8,5.127,5.127,0,0,0,3.792,1.5h9.625a5.252,5.252,0,0,0,3.752-1.439,5.269,5.269,0,0,0,1.47-3.864v-9.482a5.3,5.3,0,0,0-5.282-5.3Zm-13.017,14.785v-9.461a3.264,3.264,0,0,1,.909-2.5,3.265,3.265,0,0,1,2.467-.994h9.641a3.467,3.467,0,0,1,3.453,3.472v2.885c-10-1.089-13.594,7.071-14.5,9.77a3.3,3.3,0,0,1-1.969-3.172Zm15.541,2.564a3.412,3.412,0,0,1-2.515.908h-9.049c.881-2.562,3.986-9.083,12.491-8.042v4.573a3.491,3.491,0,0,1-.926,2.561Z" transform="translate(2726.878 -1619.457)" fill="#8796c1"/>
        <path id="Path_60171" data-name="Path 60171" d="M-2720.485,1629.049h0a2.6,2.6,0,0,0,2.6-2.6,2.6,2.6,0,0,0-2.6-2.6,2.6,2.6,0,0,0-2.6,2.6,2.613,2.613,0,0,0,2.6,2.6Zm0-3.69a1.091,1.091,0,0,1,1.089,1.09,1.091,1.091,0,0,1-1.089,1.09,1.1,1.1,0,0,1-1.091-1.09,1.091,1.091,0,0,1,1.094-1.089Z" transform="translate(2726.553 -1619.833)" fill="#8796c1"/>
      </g>
    </g>
  </g>
</svg>
