<svg xmlns="http://www.w3.org/2000/svg" xmlns:xlink="http://www.w3.org/1999/xlink" width="24" height="24" viewBox="0 0 24 24">
  <defs>
    <clipPath id="clip-path">
      <rect id="Rectangle_10781" data-name="Rectangle 10781" width="24" height="24" transform="translate(-88 550)" fill="#fff" stroke="#707070" stroke-width="1"/>
    </clipPath>
  </defs>
  <g id="Mask_Group_35" data-name="Mask Group 35" transform="translate(88 -550)" clip-path="url(#clip-path)">
    <g id="Group_56660" data-name="Group 56660" transform="translate(-2 -10)">
      <g id="Union_44" data-name="Union 44" transform="translate(-85 564)" fill="rgba(135,150,193,0.3)">
        <path d="M 17.00711059570312 14.10060024261475 L 3.893887281417847 14.10060024261475 L 3.690381050109863 14.0757999420166 C 2.099601030349731 13.88193988800049 0.9000011086463928 12.5596399307251 0.9000011086463928 11.00002002716064 C 0.9000011086463928 9.602339744567871 1.869231104850769 8.371760368347168 3.256991147994995 8.007490158081055 L 3.634981155395508 7.908269882202148 L 3.820551156997681 7.564340114593506 C 4.241491317749023 6.784189701080322 4.984431266784668 6.212559700012207 5.858870983123779 5.996019840240479 L 6.60011100769043 5.812479972839355 L 6.539721012115479 5.051229953765869 C 6.53183126449585 4.951779842376709 6.527831077575684 4.85053014755249 6.527831077575684 4.75029993057251 C 6.527831077575684 2.627239942550659 8.304591178894043 0.8999999165534973 10.48852062225342 0.8999999165534973 C 12.13299083709717 0.8999999165534973 13.62447071075439 1.906039953231812 14.19987106323242 3.403409957885742 L 14.47183132171631 4.111119747161865 L 15.21544075012207 3.96331000328064 C 15.42609119415283 3.92143988609314 15.6430606842041 3.900209903717041 15.86033153533936 3.900209903717041 C 17.62101173400879 3.900209903717041 19.05342102050781 5.290919780731201 19.05342102050781 7.000339984893799 C 19.05342102050781 7.133599758148193 19.04465103149414 7.267670154571533 19.02737045288086 7.398809909820557 L 18.94717025756836 8.007200241088867 L 19.48422050476074 8.304089546203613 C 20.48099136352539 8.855110168457031 21.10020065307617 9.888130187988281 21.10020065307617 11.00002002716064 C 21.10020065307617 12.70944023132324 19.66779136657715 14.1001501083374 17.9071102142334 14.1001501083374 L 17.00711059570312 14.1001501083374 L 17.00711059570312 14.10060024261475 Z" stroke="none"/>
        <path d="M 16.10711097717285 13.20059967041016 L 16.10711097717285 13.20014953613281 L 17.9071102142334 13.20014953613281 C 19.1715202331543 13.20014953613281 20.2002010345459 12.21317958831787 20.2002010345459 11.00002002716064 C 20.2002010345459 10.21556949615479 19.75901031494141 9.484359741210938 19.04880142211914 9.091739654541016 L 17.97470092773438 8.497969627380371 L 18.13509178161621 7.281199932098389 C 18.14725112915039 7.188910007476807 18.15342140197754 7.094409942626953 18.15342140197754 7.000339984893799 C 18.15342140197754 5.787179946899414 17.12474060058594 4.800209999084473 15.86033153533936 4.800209999084473 C 15.70184135437012 4.800209999084473 15.54390144348145 4.815629959106445 15.39090156555176 4.846039772033691 L 13.90367126464844 5.141659736633301 L 13.35977077484131 3.726239919662476 C 12.91703128814697 2.574100017547607 11.76316070556641 1.799999952316284 10.48852062225342 1.799999952316284 C 8.800850868225098 1.799999952316284 7.427831172943115 3.123499870300293 7.427831172943115 4.75029993057251 C 7.427831172943115 4.826879978179932 7.430881023406982 4.90418004989624 7.436901092529297 4.980050086975098 L 7.557691097259521 6.502540111541748 L 6.075191020965576 6.869639873504639 C 5.446451187133789 7.025330066680908 4.913361072540283 7.434309959411621 4.612611293792725 7.991699695587158 L 4.241481304168701 8.679559707641602 L 3.485491037368774 8.878000259399414 C 2.493101119995117 9.138489723205566 1.80000114440918 10.01109981536865 1.80000114440918 11.00002002716064 C 1.80000114440918 12.10528945922852 2.659491062164307 13.0435094833374 3.799261093139648 13.18241024017334 L 3.948525428771973 13.20059967041016 L 16.10711097717285 13.20059967041016 M 17.9071102142334 15.00059986114502 L 3.5815110206604 15.00059986114502 L 3.5815110206604 14.96918964385986 C 1.562551140785217 14.7231502532959 1.089477564164554e-06 13.04018020629883 1.089477564164554e-06 11.00002002716064 C 1.089477564164554e-06 9.150790214538574 1.28416109085083 7.594850063323975 3.028491020202637 7.136980056762695 C 3.562311172485352 6.147609710693359 4.507911205291748 5.403369903564453 5.64254093170166 5.122409820556641 C 5.632801055908203 4.999639987945557 5.627830982208252 4.875499725341797 5.627830982208252 4.75029993057251 C 5.627830982208252 2.126739978790283 7.804000854492188 -6.942749308791463e-08 10.48852062225342 -6.942749308791463e-08 C 12.57136154174805 -6.942749308791463e-08 14.34840106964111 1.280879974365234 15.0399808883667 3.080579996109009 C 15.30496120452881 3.027909994125366 15.57943153381348 3.000210046768188 15.86033153533936 3.000210046768188 C 18.12123107910156 3.000210046768188 19.95342063903809 4.790800094604492 19.95342063903809 7.000339984893799 C 19.95342063903809 7.175220012664795 19.94192123413086 7.347479820251465 19.91965103149414 7.516429901123047 C 21.16181182861328 8.203109741210938 22.00020027160645 9.505809783935547 22.00020027160645 11.00002002716064 C 22.00020027160645 13.20956039428711 20.16754150390625 15.00014972686768 17.9071102142334 15.00014972686768 L 17.9071102142334 15.00059986114502 Z" stroke="none" fill="#8796c1"/>
      </g>
      <g id="Group_56659" data-name="Group 56659" transform="translate(0.048 0.17)">
        <path id="Path_60580" data-name="Path 60580" d="M-74,575.924v-3.715" transform="translate(-0.242 -1.378)" fill="none" stroke="#8796c1" stroke-linecap="round" stroke-width="1.2"/>
        <path id="Path_60581" data-name="Path 60581" d="M0,0,1.708,1.708a.17.17,0,0,0,.245,0L3.661,0" transform="translate(-72.387 572.617) rotate(180)" fill="none" stroke="#8796c1" stroke-linecap="round" stroke-width="1.2"/>
      </g>
    </g>
  </g>
</svg>
