<svg xmlns="http://www.w3.org/2000/svg" xmlns:xlink="http://www.w3.org/1999/xlink" width="24" height="24" viewBox="0 0 24 24">
  <defs>
    <clipPath id="clip-path">
      <rect id="Rectangle_10413" data-name="Rectangle 10413" width="24" height="24" fill="none"/>
    </clipPath>
  </defs>
  <g id="Group_55522" data-name="Group 55522" transform="translate(2771.331 -1576.311)">
    <g id="Group_55882" data-name="Group 55882" transform="translate(-2771.331 1576.311)" clip-path="url(#clip-path)">
      <path id="Path_60192" data-name="Path 60192" d="M-2751.722,1581.074h-9.758c-3.033,0-5.035,2.032-5.112,5.22v9.592a5.043,5.043,0,0,0,4.865,5.216h10.072a4.9,4.9,0,0,0,3.537-1.262,4.9,4.9,0,0,0,1.6-3.4,4.675,4.675,0,0,0,0-.561v-9.592a5.214,5.214,0,0,0-5.208-5.218Z" transform="translate(2768.552 -1579.091)" fill="rgba(135,150,193,0.3)"/>
      <g id="Group_55881" data-name="Group 55881" transform="translate(1.957 1.982)">
        <path id="Path_60167" data-name="Path 60167" d="M-2751.722,1581.074h-9.758c-3.033,0-5.035,2.032-5.112,5.22v9.592a5.043,5.043,0,0,0,4.865,5.216h10.072a4.9,4.9,0,0,0,3.537-1.262,4.9,4.9,0,0,0,1.6-3.4,4.675,4.675,0,0,0,0-.561v-9.592a5.214,5.214,0,0,0-5.208-5.218Zm3.64,14.813a3.675,3.675,0,0,1-.983,2.7,3.6,3.6,0,0,1-2.648.961h-9.681a3.5,3.5,0,0,1-3.641-3.343q0-.158,0-.315v-9.573c.054-2.308,1.38-3.677,3.563-3.677h9.75a3.652,3.652,0,0,1,3.64,3.658Z" transform="translate(2766.595 -1581.074)" fill="#8796c1"/>
        <path id="Path_60168" data-name="Path 60168" d="M-2755.687,1593.718l.279-1.641a.743.743,0,0,0-.121-.557.743.743,0,0,0-.479-.307.738.738,0,0,0-.484.077l-1.472.774-1.472-.774a.745.745,0,0,0-1.008.3.752.752,0,0,0-.077.485l.279,1.641-1.191,1.161a.744.744,0,0,0-.23.52.743.743,0,0,0,.206.531.75.75,0,0,0,.438.223l1.646.239.735,1.492a.747.747,0,0,0,.67.417h0a.744.744,0,0,0,.669-.417l.737-1.491,1.646-.239a.744.744,0,0,0,.637-.837.743.743,0,0,0-.223-.437Z" transform="translate(2766.06 -1582.172)" fill="#8796c1"/>
        <path id="Path_60169" data-name="Path 60169" d="M-2749.447,1587.479l.167-.98a.59.59,0,0,0-.481-.682.594.594,0,0,0-.374.06l-.88.464-.88-.464a.589.589,0,0,0-.452-.043.59.59,0,0,0-.348.291.589.589,0,0,0-.059.375l.167.98-.711.694a.591.591,0,0,0-.01.835.588.588,0,0,0,.337.171l.984.143.439.891a.59.59,0,0,0,.79.267.587.587,0,0,0,.269-.267l.439-.892.984-.143a.59.59,0,0,0,.389-.231.589.589,0,0,0,.111-.438.6.6,0,0,0-.172-.337Z" transform="translate(2765.172 -1581.587)" fill="#8796c1"/>
      </g>
    </g>
  </g>
</svg>
