<svg xmlns="http://www.w3.org/2000/svg" xmlns:xlink="http://www.w3.org/1999/xlink" width="24" height="24" viewBox="0 0 24 24">
  <defs>
    <clipPath id="clip-path">
      <rect id="Rectangle_10415" data-name="Rectangle 10415" width="24" height="24" transform="translate(-2771.552 1614.442)" fill="#fdc100"/>
    </clipPath>
  </defs>
  <g id="Group_55530" data-name="Group 55530" transform="translate(2771.552 -1614.442)">
    <g id="Group_55886" data-name="Group 55886" clip-path="url(#clip-path)">
      <g id="Group_55885" data-name="Group 55885" transform="translate(-2769.909 1616.107)">
        <path id="Path_60191" data-name="Path 60191" d="M-2751.285,1619.458h-9.825c-3.189-.042-5.372,2.138-5.451,5.456v9.756a5.275,5.275,0,0,0,1.535,3.908,5.275,5.275,0,0,0,3.9,1.549h9.9a5.4,5.4,0,0,0,3.861-1.481,5.42,5.42,0,0,0,1.513-3.976v-9.756a5.453,5.453,0,0,0-5.436-5.456Z" transform="translate(2766.561 -1619.457)" fill="rgba(135,150,193,0.3)"/>
        <path id="Path_60172" data-name="Path 60172" d="M-2751.285,1619.458h-9.825c-3.189-.042-5.372,2.138-5.451,5.456v9.756a5.275,5.275,0,0,0,1.535,3.908,5.275,5.275,0,0,0,3.9,1.549h9.9a5.4,5.4,0,0,0,3.861-1.481,5.42,5.42,0,0,0,1.513-3.976v-9.756a5.453,5.453,0,0,0-5.436-5.456Zm3.553,15.215a3.59,3.59,0,0,1-.956,2.635,3.509,3.509,0,0,1-2.587.934h-9.847a3.412,3.412,0,0,1-2.565-1,3.412,3.412,0,0,1-.99-2.57v-9.734a3.361,3.361,0,0,1,.934-2.576,3.36,3.36,0,0,1,2.541-1.024h9.918a3.567,3.567,0,0,1,3.553,3.572Z" transform="translate(2766.561 -1619.457)" fill="#8796c1"/>
        <path id="Path_60173" data-name="Path 60173" d="M-2752.276,1628.628v.006l-4.116-2.377a1.789,1.789,0,0,0-2.443.655,1.8,1.8,0,0,0-.239.894v4.748a1.785,1.785,0,0,0,1.78,1.79,1.789,1.789,0,0,0,.9-.242l4.116-2.376a1.788,1.788,0,0,0,.654-2.443,1.792,1.792,0,0,0-.652-.655Z" transform="translate(2766.118 -1619.846)" fill="#8796c1"/>
      </g>
    </g>
  </g>
</svg>
