<svg xmlns="http://www.w3.org/2000/svg" xmlns:xlink="http://www.w3.org/1999/xlink" width="24" height="24" viewBox="0 0 24 24">
  <defs>
    <clipPath id="clip-path">
      <rect id="Rectangle_10411" data-name="Rectangle 10411" width="24" height="24" fill="none"/>
    </clipPath>
  </defs>
  <g id="Group_55527" data-name="Group 55527" transform="translate(2731.869 -1576.311)">
    <g id="Group_55879" data-name="Group 55879" transform="translate(-2731.869 1576.311)" clip-path="url(#clip-path)">
      <g id="Group_55878" data-name="Group 55878" transform="translate(2.048 2.533)">
        <path id="Path_60162" data-name="Path 60162" d="M-2722.927,1583.68a1.892,1.892,0,0,0,.578,1.036.508.508,0,0,0,.718.017.508.508,0,0,0,.041-.692,3.409,3.409,0,0,1-.283-.369l.078-.1a1.218,1.218,0,0,0,.334-.686,1.36,1.36,0,0,0-.31-.778c-.032-.05-.076-.115-.107-.169a2.979,2.979,0,0,1,.268-.3.508.508,0,0,0,.007-.718.507.507,0,0,0-.358-.152.507.507,0,0,0-.36.145c-.564.552-.591.831-.6.924a1.307,1.307,0,0,0,.308.83,1.54,1.54,0,0,1,.1.168c-.026.036-.057.075-.082.106a1.162,1.162,0,0,0-.332.738Z" transform="translate(2727.405 -1580.254)" fill="#8796c1"/>
        <path id="Path_60163" data-name="Path 60163" d="M-2719.42,1582.691c-.032.044-.072.095-.1.133a1.461,1.461,0,0,0-.42.922,2.362,2.362,0,0,0,.724,1.3.636.636,0,0,0,.439.214.636.636,0,0,0,.461-.161.637.637,0,0,0,.214-.439.634.634,0,0,0-.16-.461,4.2,4.2,0,0,1-.358-.462c.032-.043.069-.09.1-.127a1.523,1.523,0,0,0,.417-.858,1.7,1.7,0,0,0-.387-.976,2.483,2.483,0,0,1-.135-.21,3.768,3.768,0,0,1,.332-.374.636.636,0,0,0,.192-.448.635.635,0,0,0-.182-.452.634.634,0,0,0-.448-.192.636.636,0,0,0-.452.182c-.705.691-.74,1.041-.753,1.156a1.64,1.64,0,0,0,.387,1.039C-2719.513,1582.544-2719.459,1582.625-2719.42,1582.691Z" transform="translate(2726.736 -1580.105)" fill="#8796c1"/>
        <path id="Path_60164" data-name="Path 60164" d="M-2716.4,1583.68a1.89,1.89,0,0,0,.579,1.036.506.506,0,0,0,.355.157.507.507,0,0,0,.363-.141.508.508,0,0,0,.041-.692,3.227,3.227,0,0,1-.283-.369l.077-.1a1.215,1.215,0,0,0,.333-.686,1.351,1.351,0,0,0-.309-.778c-.033-.05-.076-.115-.108-.169a3.03,3.03,0,0,1,.269-.3.509.509,0,0,0,.008-.718.508.508,0,0,0-.718-.007c-.563.552-.591.831-.6.924a1.3,1.3,0,0,0,.31.83c.029.051.072.115.1.168l-.083.106a1.175,1.175,0,0,0-.334.738Z" transform="translate(2725.94 -1580.254)" fill="#8796c1"/>
        <path id="Path_60165" data-name="Path 60165" d="M-2711.9,1589.6a3.079,3.079,0,0,0-1.4.34,3.264,3.264,0,0,0-2.837-1.662h-9.416a3.151,3.151,0,0,0-3.151,3.151v1.622a7.818,7.818,0,0,0,7.818,7.818h0a8.025,8.025,0,0,0,7.586-5.418,3.087,3.087,0,0,0,1.4.348,3.1,3.1,0,0,0,3.1-3.1,3.1,3.1,0,0,0-3.1-3.1Zm-2.509,3.24a6.485,6.485,0,0,1-6.478,6.478,6.274,6.274,0,0,1-6.267-6.267v-1.622a1.6,1.6,0,0,1,1.6-1.6h9.416a1.73,1.73,0,0,1,1.729,1.729Zm2.509,1.661a1.788,1.788,0,0,1-1.073-.363,8.055,8.055,0,0,0,.115-1.3v-1.282a3.34,3.34,0,0,0-.037-.359,1.8,1.8,0,0,1,.994-.3,1.8,1.8,0,0,1,1.8,1.8,1.8,1.8,0,0,1-.524,1.277,1.8,1.8,0,0,1-1.275.531Z" transform="translate(2728.701 -1581.94)" fill="#8796c1" stroke="#8796c1" stroke-width="0.3"/>
        <path id="Path_60187" data-name="Path 60187" d="M-2714.409,1592.84a6.485,6.485,0,0,1-6.478,6.478,6.274,6.274,0,0,1-6.267-6.267v-1.622a1.6,1.6,0,0,1,1.6-1.6h9.416a1.73,1.73,0,0,1,1.729,1.729Zm2.509,1.661a1.788,1.788,0,0,1-1.073-.363,8.055,8.055,0,0,0,.115-1.3v-1.282a3.34,3.34,0,0,0-.037-.359,1.8,1.8,0,0,1,.994-.3,1.8,1.8,0,0,1,1.8,1.8,1.8,1.8,0,0,1-.524,1.277,1.8,1.8,0,0,1-1.275.531Z" transform="translate(2728.701 -1581.94)" fill="rgba(135,150,193,0.3)" stroke="rgba(135,150,193,0.3)" stroke-width="0.3"/>
      </g>
    </g>
  </g>
</svg>
