<svg id="Group_56661" data-name="Group 56661" xmlns="http://www.w3.org/2000/svg" xmlns:xlink="http://www.w3.org/1999/xlink" width="24" height="24" viewBox="0 0 24 24">
  <defs>
    <clipPath id="clip-path">
      <rect id="Rectangle_59" data-name="Rectangle 59" width="24" height="24" fill="#b8c1da"/>
    </clipPath>
  </defs>
  <g id="Group_151" data-name="Group 151" clip-path="url(#clip-path)">
    <path id="Path_60208" data-name="Path 60208" d="M-2712.955,1619.458h-8.955a4.73,4.73,0,0,0-3.591,1.379,4.731,4.731,0,0,0-1.379,3.591v8.892a4.807,4.807,0,0,0,1.4,3.56,4.807,4.807,0,0,0,3.556,1.41h9.025a4.925,4.925,0,0,0,3.518-1.349,4.94,4.94,0,0,0,1.379-3.624v-8.891a4.969,4.969,0,0,0-4.953-4.967Z" transform="translate(2729.439 -1616.872)" fill="rgba(135,150,193,0.3)"/>
    <path id="Path_236" data-name="Path 236" d="M-1200.565,3884.475h0v-7.179a1.234,1.234,0,0,0-1.127-1.316h-5.26a1.234,1.234,0,0,0-1.127,1.316v6.067a1.493,1.493,0,0,0-1-.39,1.5,1.5,0,0,0-1.5,1.5,1.5,1.5,0,0,0,1.5,1.5,1.5,1.5,0,0,0,1.5-1.5,1.49,1.49,0,0,0-.023-.231h.023v-6.949a.749.749,0,0,1,.626-.815h5.26a.749.749,0,0,1,.626.815v6.067a1.493,1.493,0,0,0-1-.39,1.5,1.5,0,0,0-1.5,1.5,1.5,1.5,0,0,0,1.5,1.5,1.5,1.5,0,0,0,1.476-1.233h0Zm-8.517,1a1,1,0,0,1-1-1,1,1,0,0,1,1-1,1,1,0,0,1,1,1A1,1,0,0,1-1209.082,3885.476Zm7.014,0a1,1,0,0,1-1-1,1,1,0,0,1,1-1,1,1,0,0,1,1,1v0A1,1,0,0,1-1202.068,3885.476Z" transform="translate(1217.343 -3868.757)" fill="#8796c1" stroke="#8796c1" stroke-width="0.8"/>
    <path id="Path_60207" data-name="Path 60207" d="M-2751.285,1619.458h-9.825c-3.189-.042-5.372,2.138-5.451,5.456v9.756a5.275,5.275,0,0,0,1.535,3.908,5.275,5.275,0,0,0,3.9,1.549h9.9a5.4,5.4,0,0,0,3.861-1.481,5.42,5.42,0,0,0,1.513-3.976v-9.756a5.453,5.453,0,0,0-5.436-5.456Zm3.553,15.215a3.59,3.59,0,0,1-.956,2.635,3.509,3.509,0,0,1-2.587.934h-9.847a3.412,3.412,0,0,1-2.565-1,3.412,3.412,0,0,1-.99-2.57v-9.734a3.361,3.361,0,0,1,.934-2.576,3.36,3.36,0,0,1,2.541-1.024h9.918a3.567,3.567,0,0,1,3.553,3.572Z" transform="translate(2768.204 -1617.793)" fill="#8796c1"/>
  </g>
</svg>
