<svg xmlns="http://www.w3.org/2000/svg" xmlns:xlink="http://www.w3.org/1999/xlink" width="24" height="24" viewBox="0 0 24 24">
  <defs>
    <clipPath id="clip-path">
      <rect id="Rectangle_10419" data-name="Rectangle 10419" width="24" height="24" fill="#fff"/>
    </clipPath>
  </defs>
  <g id="Group_55498" data-name="Group 55498" transform="translate(-1094.883 -270.625)">
    <g id="Group_55893" data-name="Group 55893" transform="translate(1094.883 270.625)" clip-path="url(#clip-path)">
      <path id="Path_60182" data-name="Path 60182" d="M4.16,11.936,2.967,8.607a14.7,14.7,0,0,1,2.8-1.493c.82-.188,12.269-4.6,12.269-4.6s1.391.769,1.509,1.435.426,1.681.426,1.681a1.9,1.9,0,0,1-1.052,1.09C18.173,6.961,4.16,11.936,4.16,11.936Z" transform="translate(-0.742 -0.63)" fill="rgba(135,150,193,0.3)"/>
      <g id="Group_55892" data-name="Group 55892" transform="translate(1.5 1.283)">
        <path id="Path_60181" data-name="Path 60181" d="M3.054,13.519c.488-.039,15.382,0,15.382,0a1.788,1.788,0,0,1,1.637,1.86c.168,1.84,0,6.518,0,6.518s-1.654,2.224-3.731,2.346-10.923-.15-10.923-.15-2.947-1.012-3.2-3.734a38.11,38.11,0,0,1,0-5.707S2.566,13.558,3.054,13.519Z" transform="translate(-0.528 -3.375)" fill="rgba(135,150,193,0.3)"/>
        <path id="Path_60179" data-name="Path 60179" d="M1118.174,284.341h-11.185l10.53-3.88a2.089,2.089,0,0,0,1.238-2.682l-.437-1.186a2.087,2.087,0,0,0-2.681-1.237l-13.88,5.115a2.088,2.088,0,0,0-1.237,2.682l.437,1.186a2.073,2.073,0,0,0,.908,1.082,2.631,2.631,0,0,0-.52,1.569v4.61a4.893,4.893,0,0,0,5.045,5.063h9.447a4.759,4.759,0,0,0,4.983-5.063v-4.61A2.651,2.651,0,0,0,1118.174,284.341Zm-16.215-2.151a.572.572,0,0,1,.323-.3l13.88-5.115a.577.577,0,0,1,.739.341l.437,1.186a.575.575,0,0,1-.341.738l-13.879,5.115a.575.575,0,0,1-.738-.341l-.437-1.186A.574.574,0,0,1,1101.959,282.19Zm17.35,9.409a3.563,3.563,0,0,1-.954,2.615,3.477,3.477,0,0,1-2.521.932h-9.44a3.392,3.392,0,0,1-3.533-3.549V286.99a1.136,1.136,0,0,1,1.135-1.135h14.178a1.137,1.137,0,0,1,1.135,1.135Z" transform="translate(-1100.392 -275.226)" fill="#8796c1"/>
      </g>
      <path id="Polygon_3" data-name="Polygon 3" d="M3.151,1.41a.5.5,0,0,1,.948,0l.321.955a.5.5,0,0,0,.461.341l1.011.027a.5.5,0,0,1,.3.889l-.843.68a.5.5,0,0,0-.167.525l.293,1.039a.5.5,0,0,1-.774.541l-.782-.566a.5.5,0,0,0-.586,0l-.782.566a.5.5,0,0,1-.774-.541l.293-1.039A.5.5,0,0,0,1.9,4.3l-.843-.68a.5.5,0,0,1,.3-.889L2.37,2.706a.5.5,0,0,0,.461-.341Z" transform="translate(8.75 12.5)" fill="#8796c1"/>
    </g>
  </g>
</svg>
