<svg xmlns="http://www.w3.org/2000/svg" xmlns:xlink="http://www.w3.org/1999/xlink" width="24" height="24" viewBox="0 0 24 24">
  <defs>
    <clipPath id="clip-path">
      <rect id="Rectangle_87" data-name="Rectangle 87" width="24" height="24"/>
    </clipPath>
  </defs>
  <g id="iPhone_X_XS_11_Pro_2" data-name="iPhone X/XS/11 Pro – 2" clip-path="url(#clip-path)">
    <g id="Group_50581" data-name="Group 50581" transform="translate(-78 -273)">
      <path id="Path_29652" data-name="Path 29652" d="M111.942,27.354V8H100.007V27.354l5.806-5.161,5.084,4.282Zm-9.032-7.419,1.29-3.226-2.581-1.935h3.226l.968-2.9,1,2.9h3.2l-2.581,1.935,1.29,3.226L105.813,18Z" transform="translate(-15.684 267.323)" fill="#6ae164"/>
      <path id="Path_29653" data-name="Path 29653" d="M134.518,101.269l-1.2,3a.323.323,0,0,0,.479.387l2.724-1.815,2.724,1.816a.323.323,0,0,0,.479-.387l-1.2-3,2.383-1.787a.323.323,0,0,0-.194-.581H137.75l-.922-2.685a.322.322,0,0,0-.61,0l-.9,2.683h-2.993a.323.323,0,0,0-.194.581Z" transform="translate(-46.393 182.873)" fill="#fff"/>
      <path id="Path_29654" data-name="Path 29654" d="M104.265,0H92.33a.323.323,0,0,0-.323.323V19.677a.323.323,0,0,0,.537.241l5.6-4.976,5.915,4.982a.323.323,0,0,0,.53-.247V.323A.323.323,0,0,0,104.265,0Zm-.323,18.984-5.6-4.715a.323.323,0,0,0-.422.006l-5.27,4.684V.645h11.29Z" transform="translate(-8.007 275)" fill="#fff" stroke="#fff" stroke-width="0.5"/>
    </g>
  </g>
</svg>
