<svg id="Group_58887" data-name="Group 58887" xmlns="http://www.w3.org/2000/svg" xmlns:xlink="http://www.w3.org/1999/xlink" width="19.413" height="24" viewBox="0 0 19.413 24">
  <defs>
    <clipPath id="clip-path">
      <rect id="Rectangle_11479" data-name="Rectangle 11479" width="19.413" height="24" fill="none"/>
    </clipPath>
  </defs>
  <g id="Group_58874" data-name="Group 58874" clip-path="url(#clip-path)">
    <path id="Path_33118" data-name="Path 33118" d="M14.339,0H4.98A4.81,4.81,0,0,0,0,5.074V18.926A4.907,4.907,0,0,0,5.073,24h9.266a4.8,4.8,0,0,0,5.073-5.074V5.074A5.079,5.079,0,0,0,14.339,0m3.452,5.074V6.219H15a1.856,1.856,0,0,1-1.854-1.853V1.622h1.194a3.456,3.456,0,0,1,3.452,3.452m-3.452,17.3-4.6,0-4.661,0a3.3,3.3,0,0,1-3.452-3.452V5.09c.043-2.207,1.317-3.5,3.452-3.468h6.451V4.366A3.479,3.479,0,0,0,15,7.841h2.792V18.926a3.172,3.172,0,0,1-3.452,3.452" fill="#fdc100"/>
    <path id="Path_33119" data-name="Path 33119" d="M5.537,10.634h5.328a.926.926,0,1,0,0-1.853H5.537a.926.926,0,1,0,0,1.853" fill="#fdc100"/>
    <path id="Path_33120" data-name="Path 33120" d="M14.108,13.321H5.537a.926.926,0,1,0,0,1.853h8.571a.926.926,0,1,0,0-1.853" fill="#fdc100"/>
    <path id="Path_33121" data-name="Path 33121" d="M14.108,17.861H5.537a.927.927,0,1,0,0,1.853h8.571a.927.927,0,1,0,0-1.853" fill="#fdc100"/>
  </g>
</svg>
