<svg xmlns="http://www.w3.org/2000/svg" width="27" height="27" viewBox="0 0 27 27">
  <g id="Component_31_2" data-name="Component 31 – 2" transform="translate(1.5 1.5)">
    <g id="Group_56313" data-name="Group 56313" transform="translate(-1216 -589)">
      <g id="Rectangle_10309" data-name="Rectangle 10309" transform="translate(1216 589)" fill="#fff" stroke="#637191" stroke-width="1.5">
        <rect width="24" height="24" rx="4" stroke="none"/>
        <rect x="-0.75" y="-0.75" width="25.5" height="25.5" rx="4.75" fill="none"/>
      </g>
    </g>
    <g id="Group_56314" data-name="Group 56314" transform="translate(-1175 -196.5)">
      <g id="Union_38" data-name="Union 38" transform="translate(7069 8048.5)" fill="#fff">
        <path d="M -5878.00048828125 -7834.24951171875 C -5879.10791015625 -7834.24951171875 -5880.16650390625 -7834.59033203125 -5881.06201171875 -7835.23486328125 L -5881.5 -7835.55029296875 L -5881.93798828125 -7835.23486328125 C -5882.83349609375 -7834.59033203125 -5883.89208984375 -7834.24951171875 -5885 -7834.24951171875 C -5887.89453125 -7834.24951171875 -5890.24951171875 -7836.60546875 -5890.24951171875 -7839.5009765625 C -5890.24951171875 -7842.3955078125 -5887.89453125 -7844.75048828125 -5885 -7844.75048828125 C -5883.892578125 -7844.75048828125 -5882.833984375 -7844.40966796875 -5881.93798828125 -7843.7646484375 L -5881.5 -7843.44921875 L -5881.06201171875 -7843.7646484375 C -5880.166015625 -7844.40966796875 -5879.107421875 -7844.75048828125 -5878.00048828125 -7844.75048828125 C -5875.10595703125 -7844.75048828125 -5872.7509765625 -7842.3955078125 -5872.7509765625 -7839.5009765625 C -5872.7509765625 -7836.60546875 -5875.10595703125 -7834.24951171875 -5878.00048828125 -7834.24951171875 Z" stroke="none"/>
        <path d="M -5878.00048828125 -7834.99951171875 C -5875.51953125 -7834.99951171875 -5873.5009765625 -7837.01904296875 -5873.5009765625 -7839.5009765625 C -5873.5009765625 -7841.98193359375 -5875.51953125 -7844.00048828125 -5878.00048828125 -7844.00048828125 C -5878.94921875 -7844.00048828125 -5879.8564453125 -7843.70849609375 -5880.62353515625 -7843.15625 L -5881.5 -7842.525390625 L -5882.37646484375 -7843.15625 C -5883.1435546875 -7843.70849609375 -5884.05078125 -7844.00048828125 -5885 -7844.00048828125 C -5887.48095703125 -7844.00048828125 -5889.49951171875 -7841.98193359375 -5889.49951171875 -7839.5009765625 C -5889.49951171875 -7837.01904296875 -5887.48095703125 -7834.99951171875 -5885 -7834.99951171875 C -5884.05029296875 -7834.99951171875 -5883.14306640625 -7835.29150390625 -5882.37646484375 -7835.84326171875 L -5881.5 -7836.47412109375 L -5880.62353515625 -7835.84326171875 C -5879.85693359375 -7835.29150390625 -5878.94970703125 -7834.99951171875 -5878.00048828125 -7834.99951171875 M -5878.00048828125 -7833.49951171875 C -5879.306640625 -7833.49951171875 -5880.51513671875 -7833.9169921875 -5881.5 -7834.6259765625 C -5882.48486328125 -7833.9169921875 -5883.69384765625 -7833.49951171875 -5885 -7833.49951171875 C -5888.3134765625 -7833.49951171875 -5890.99951171875 -7836.18701171875 -5890.99951171875 -7839.5009765625 C -5890.99951171875 -7842.8125 -5888.3134765625 -7845.50048828125 -5885 -7845.50048828125 C -5883.69384765625 -7845.50048828125 -5882.48486328125 -7845.08251953125 -5881.5 -7844.37353515625 C -5880.51513671875 -7845.08251953125 -5879.306640625 -7845.50048828125 -5878.00048828125 -7845.50048828125 C -5874.6865234375 -7845.50048828125 -5872.0009765625 -7842.8125 -5872.0009765625 -7839.5009765625 C -5872.0009765625 -7836.18701171875 -5874.6865234375 -7833.49951171875 -5878.00048828125 -7833.49951171875 Z" stroke="none" fill="#637191"/>
      </g>
    </g>
    <line id="Line_2774" data-name="Line 2774" x1="4.249" transform="translate(10.5 12.5)" fill="none" stroke="#637191" stroke-width="1"/>
    <line id="Line_2776" data-name="Line 2776" x1="6.249" transform="translate(8.5 10.5)" fill="none" stroke="#637191" stroke-width="1"/>
    <line id="Line_2775" data-name="Line 2775" x1="3" transform="translate(11.749 14.5)" fill="none" stroke="#637191" stroke-width="1"/>
  </g>
</svg>
