<svg id="Group_59438" data-name="Group 59438" xmlns="http://www.w3.org/2000/svg" xmlns:xlink="http://www.w3.org/1999/xlink" width="19.313" height="18.16" viewBox="0 0 19.313 18.16">
  <defs>
    <clipPath id="clip-path">
      <rect id="Rectangle_12566" data-name="Rectangle 12566" width="19.313" height="18.16" fill="#54536e"/>
    </clipPath>
  </defs>
  <g id="Group_59437" data-name="Group 59437" clip-path="url(#clip-path)">
    <path id="Path_83831" data-name="Path 83831" d="M0,7.408c.21-.4.5-.556.822-.406a1.33,1.33,0,0,1,.342.307,1.887,1.887,0,0,1,.161.229c.024-.091.041-.152.055-.214A8.876,8.876,0,0,1,7.85.352a8.982,8.982,0,0,1,9.489,3.073A8.754,8.754,0,0,1,19.3,9.491a8.693,8.693,0,0,1-4.347,7.3,8.76,8.76,0,0,1-8.616.449A8.129,8.129,0,0,1,3.168,14.6a.605.605,0,1,1,.97-.717A7.26,7.26,0,0,0,8.97,16.82,7.858,7.858,0,1,0,2.534,7.712a.147.147,0,0,0,0,.037l.051.051c.092-.113.176-.235.278-.338a.6.6,0,1,1,.858.843q-.736.745-1.481,1.48a.581.581,0,0,1-.929-.08C.9,9.1.5,8.494.1,7.887.063,7.831.033,7.769,0,7.71v-.3" transform="translate(0 0)" fill="#54536e"/>
  </g>
  <path id="Path_83832" data-name="Path 83832" d="M8.056,13.528c0-.386,0-.384-.38-.484a3.052,3.052,0,0,1-1.17-.6.6.6,0,1,1,.729-.942,2.324,2.324,0,0,0,2.351.3,1.473,1.473,0,0,0,.683-.5.858.858,0,0,0-.179-1.213A2.256,2.256,0,0,0,8.613,9.59,3.425,3.425,0,0,1,6.8,9.072,2.2,2.2,0,0,1,5.673,7.34,2.076,2.076,0,0,1,6.787,5.345,6.166,6.166,0,0,1,7.92,4.885c.1-.037.143-.067.138-.176-.008-.168-.007-.336,0-.5a.6.6,0,1,1,1.195.007c.006.2-.067.448.027.584s.357.117.53.2a8.43,8.43,0,0,1,.96.527.575.575,0,0,1,.154.862.592.592,0,0,1-.877.074,2.4,2.4,0,0,0-2.622-.124.947.947,0,0,0,.022,1.732A2.6,2.6,0,0,0,8.752,8.4a3.292,3.292,0,0,1,1.968.664,2.083,2.083,0,0,1-.2,3.578,6.448,6.448,0,0,1-1.134.459c-.1.037-.143.067-.138.176.008.167.007.336,0,.5a.6.6,0,1,1-1.195-.007c0-.081,0-.162,0-.243" transform="translate(1.645 0.089)" fill="#54536e"/>
</svg>
