<svg xmlns="http://www.w3.org/2000/svg" xmlns:xlink="http://www.w3.org/1999/xlink" width="28" height="28" viewBox="0 0 28 28">
  <defs>
    <clipPath id="clip-path">
      <rect id="Rectangle_10092" data-name="Rectangle 10092" width="28" height="28" fill="#54536e"/>
    </clipPath>
  </defs>
  <g id="Group_57497" data-name="Group 57497" transform="translate(-448.621 -44.899)">
    <g id="Group_54986" data-name="Group 54986" transform="translate(448.621 44.899)" clip-path="url(#clip-path)">
      <g id="Group_54985" data-name="Group 54985" transform="translate(4.917 4.919)">
        <path id="Path_59751" data-name="Path 59751" d="M466.133,53.332a9.081,9.081,0,1,0,9.082,9.081A9.092,9.092,0,0,0,466.133,53.332Zm0,17.072a7.991,7.991,0,1,1,7.993-7.991A8,8,0,0,1,466.133,70.4Z" transform="translate(-457.05 -53.332)" fill="#54536e"/>
        <path id="Path_59752" data-name="Path 59752" d="M472.708,63.1l-2-.265-.913-1.794a1.069,1.069,0,0,0-.984-.6,1.083,1.083,0,0,0-.969.619l-.869,1.816-1.989.314a1.089,1.089,0,0,0-.581,1.865l1.458,1.388-.316,1.988a1.088,1.088,0,0,0,1.594,1.129l1.77-.958,1.793.915a1.089,1.089,0,0,0,1.566-1.167l-.365-1.98,1.424-1.422a1.089,1.089,0,0,0-.626-1.85Zm-1.568,2.5a1.09,1.09,0,0,0-.3.968l.365,1.98-1.793-.915a1.091,1.091,0,0,0-1.014.013l-1.77.958.316-1.988a1.087,1.087,0,0,0-.325-.96l-1.458-1.388,1.988-.314a1.086,1.086,0,0,0,.813-.605l.869-1.816.913,1.794a1.088,1.088,0,0,0,.827.586l1.995.265Z" transform="translate(-459.974 -56.297)" fill="#54536e"/>
      </g>
    </g>
  </g>
</svg>
