<svg xmlns="http://www.w3.org/2000/svg" xmlns:xlink="http://www.w3.org/1999/xlink" width="28" height="28" viewBox="0 0 28 28">
  <defs>
    <clipPath id="clip-path">
      <rect id="Rectangle_10092" data-name="Rectangle 10092" width="28" height="28" fill="#54536e"/>
    </clipPath>
  </defs>
  <g id="Group_57504" data-name="Group 57504" transform="translate(-517 -363)">
    <g id="Group_57502" data-name="Group 57502" transform="translate(68.379 318.101)">
      <g id="Group_54986" data-name="Group 54986" transform="translate(448.621 44.899)" clip-path="url(#clip-path)">
        <g id="Group_54985" data-name="Group 54985" transform="translate(4.917 4.919)">
          <path id="Path_59751" data-name="Path 59751" d="M466.133,53.332a9.081,9.081,0,1,0,9.082,9.081A9.092,9.092,0,0,0,466.133,53.332Zm0,17.072a7.991,7.991,0,1,1,7.993-7.991A8,8,0,0,1,466.133,70.4Z" transform="translate(-457.05 -53.332)" fill="#54536e"/>
        </g>
      </g>
    </g>
    <path id="Path_83742" data-name="Path 83742" d="M8.056,13.528c0-.386,0-.384-.38-.484a3.052,3.052,0,0,1-1.17-.6.6.6,0,1,1,.729-.942,2.324,2.324,0,0,0,2.351.3,1.473,1.473,0,0,0,.683-.5.858.858,0,0,0-.179-1.213A2.256,2.256,0,0,0,8.613,9.59,3.425,3.425,0,0,1,6.8,9.072,2.2,2.2,0,0,1,5.673,7.34,2.076,2.076,0,0,1,6.787,5.345,6.166,6.166,0,0,1,7.92,4.885c.1-.037.143-.067.138-.176-.008-.168-.007-.336,0-.5a.6.6,0,1,1,1.195.007c.006.2-.067.448.027.584s.357.117.53.2a8.43,8.43,0,0,1,.96.527.575.575,0,0,1,.154.862.592.592,0,0,1-.877.074,2.4,2.4,0,0,0-2.622-.124.947.947,0,0,0,.022,1.732A2.6,2.6,0,0,0,8.752,8.4a3.292,3.292,0,0,1,1.968.664,2.083,2.083,0,0,1-.2,3.578,6.448,6.448,0,0,1-1.134.459c-.1.037-.143.067-.138.176.008.167.007.336,0,.5a.6.6,0,1,1-1.195-.007c0-.081,0-.162,0-.243" transform="translate(522.345 368.244)" fill="#54536e"/>
  </g>
</svg>
