<svg xmlns="http://www.w3.org/2000/svg" width="20" height="20" viewBox="0 0 20 20">
  <g id="Group_63568" data-name="Group 63568" transform="translate(-709 -169)">
    <g id="Path_82969" data-name="Path 82969" transform="translate(709 169)" fill="#637191">
      <path d="M 16 19.25 L 4 19.25 C 2.207940101623535 19.25 0.75 17.79206085205078 0.75 16 L 0.75 4 C 0.75 2.207940101623535 2.207940101623535 0.75 4 0.75 L 16 0.75 C 17.79206085205078 0.75 19.25 2.207940101623535 19.25 4 L 19.25 16 C 19.25 17.79206085205078 17.79206085205078 19.25 16 19.25 Z" stroke="none"/>
      <path d="M 4 1.5 C 2.621500015258789 1.5 1.5 2.621500015258789 1.5 4 L 1.5 16 C 1.5 17.37849998474121 2.621500015258789 18.5 4 18.5 L 16 18.5 C 17.37849998474121 18.5 18.5 17.37849998474121 18.5 16 L 18.5 4 C 18.5 2.621500015258789 17.37849998474121 1.5 16 1.5 L 4 1.5 M 4 0 L 16 0 C 18.20914077758789 0 20 1.790859222412109 20 4 L 20 16 C 20 18.20914077758789 18.20914077758789 20 16 20 L 4 20 C 1.790859222412109 20 0 18.20914077758789 0 16 L 0 4 C 0 1.790859222412109 1.790859222412109 0 4 0 Z" stroke="none" fill="#637191"/>
    </g>
    <g id="Group_56266" data-name="Group 56266" transform="translate(714.648 174.648)">
      <path id="Path_36596" data-name="Path 36596" d="M1477.642,3550.127v7.373" transform="translate(-1473.289 -3549.461)" fill="#fff"/>
      <path id="Path_36596_-_Outline" data-name="Path 36596 - Outline" d="M1477.807,3558.331a.693.693,0,0,1-.665-.718v-7.267a.667.667,0,1,1,1.331,0v7.267A.693.693,0,0,1,1477.807,3558.331Z" transform="translate(-1473.455 -3549.627)" fill="#fff"/>
      <path id="Path_36597" data-name="Path 36597" d="M0,0V7.373" transform="translate(8.038 4.352) rotate(90)" fill="#fff"/>
      <path id="Path_36597_-_Outline" data-name="Path 36597 - Outline" d="M.665,8.7A.693.693,0,0,1,0,7.985V.718A.693.693,0,0,1,.665,0a.693.693,0,0,1,.665.718V7.985A.693.693,0,0,1,.665,8.7Z" transform="translate(8.704 3.686) rotate(90)" fill="#fff"/>
    </g>
  </g>
</svg>
