<svg xmlns="http://www.w3.org/2000/svg" width="20" height="20" viewBox="0 0 20 20">
  <g id="Group_63570" data-name="Group 63570" transform="translate(-738 -168)">
    <g id="Path_60445" data-name="Path 60445" transform="translate(738 168)" fill="#637191">
      <path d="M 16 19.25 L 4 19.25 C 2.207940101623535 19.25 0.75 17.79206085205078 0.75 16 L 0.75 4 C 0.75 2.207940101623535 2.207940101623535 0.75 4 0.75 L 16 0.75 C 17.79206085205078 0.75 19.25 2.207940101623535 19.25 4 L 19.25 16 C 19.25 17.79206085205078 17.79206085205078 19.25 16 19.25 Z" stroke="none"/>
      <path d="M 4 1.5 C 2.621500015258789 1.5 1.5 2.621500015258789 1.5 4 L 1.5 16 C 1.5 17.37849998474121 2.621500015258789 18.5 4 18.5 L 16 18.5 C 17.37849998474121 18.5 18.5 17.37849998474121 18.5 16 L 18.5 4 C 18.5 2.621500015258789 17.37849998474121 1.5 16 1.5 L 4 1.5 M 4 0 L 16 0 C 18.20914077758789 0 20 1.790859222412109 20 4 L 20 16 C 20 18.20914077758789 18.20914077758789 20 16 20 L 4 20 C 1.790859222412109 20 0 18.20914077758789 0 16 L 0 4 C 0 1.790859222412109 1.790859222412109 0 4 0 Z" stroke="none" fill="#637191"/>
    </g>
    <g id="Group_56268" data-name="Group 56268" transform="translate(743.833 174.471)">
      <path id="Path_36596" data-name="Path 36596" d="M1477.642,3550.127v7.059" transform="translate(-1473.475 -3550.127)" fill="#8796c1"/>
      <path id="Path_36597" data-name="Path 36597" d="M0,0V7.059" transform="translate(7.696 3.529) rotate(90)" fill="#8796c1"/>
      <path id="Path_36597_-_Outline" data-name="Path 36597 - Outline" d="M.637,8.334A.664.664,0,0,1,0,7.646V.688A.664.664,0,0,1,.637,0a.664.664,0,0,1,.637.688V7.646A.664.664,0,0,1,.637,8.334Z" transform="translate(8.334 2.892) rotate(90)" fill="#fff"/>
    </g>
  </g>
</svg>
