<svg xmlns="http://www.w3.org/2000/svg" width="106" height="84" viewBox="0 0 106 84">
  <g id="Group_64659" data-name="Group 64659" transform="translate(-590 -162)">
    <g id="Group_64653" data-name="Group 64653" transform="translate(3 -48)" opacity="0.319">
      <g id="Path_84973" data-name="Path 84973" transform="translate(587 210)" fill="#fff" stroke-linecap="round" stroke-linejoin="round">
        <path d="M 52.21937942504883 79.49626922607422 L 45.4769401550293 69.59304809570312 L 44.73276901245117 68.5 L 43.41043090820312 68.5 L 19 68.5 C 14.59269237518311 68.5 10.44916915893555 66.78370666503906 7.332738399505615 63.66726303100586 C 4.216292381286621 60.55083084106445 2.5 56.40730667114258 2.5 52 L 2.5 19 C 2.5 14.59269237518311 4.216292381286621 10.44916915893555 7.332738399505615 7.332738399505615 C 10.44916915893555 4.216292381286621 14.59269237518311 2.5 19 2.5 L 87 2.5 C 91.40731048583984 2.5 95.55082702636719 4.216292381286621 98.66725921630859 7.332738399505615 C 101.7837066650391 10.44916915893555 103.5 14.59269237518311 103.5 19 L 103.5 52 C 103.5 56.40730667114258 101.7837066650391 60.55083084106445 98.66725921630859 63.66726303100586 C 95.55082702636719 66.78370666503906 91.40731048583984 68.5 87 68.5 L 60.76264572143555 68.5 L 59.41041564941406 68.5 L 58.67032241821289 69.63172149658203 L 52.21937942504883 79.49626922607422 Z" stroke="none"/>
        <path d="M 19 5 C 15.26045227050781 5 11.74474334716797 6.456253051757812 9.100509643554688 9.100509643554688 C 6.456253051757812 11.74474334716797 5 15.26045227050781 5 19 L 5 52 C 5 55.73954772949219 6.456253051757812 59.25525665283203 9.100509643554688 61.89949035644531 C 11.74474334716797 64.54374694824219 15.26045227050781 66 19 66 L 43.41043472290039 66 C 45.06494522094727 66 46.61234664916992 66.81847381591797 47.54347229003906 68.18608856201172 L 52.17750930786133 74.99252319335938 L 56.57801818847656 68.26343536376953 C 57.50158309936523 66.85116577148438 59.07519912719727 66 60.76265335083008 66 L 87 66 C 90.73952484130859 66 94.25523376464844 64.54374694824219 96.89949035644531 61.89949035644531 C 99.54374694824219 59.25525665283203 101 55.73954772949219 101 52 L 101 19 C 101 15.26045227050781 99.54374694824219 11.74474334716797 96.89949035644531 9.100509643554688 C 94.25523376464844 6.456253051757812 90.73952484130859 5 87 5 L 19 5 M 19 0 L 87 0 C 97.49340057373047 0 106 8.506584167480469 106 19 L 106 52 C 106 62.49341583251953 97.49340057373047 71 87 71 L 60.76265335083008 71 L 52.26125335693359 84 L 43.41043472290039 71 L 19 71 C 8.506584167480469 71 0 62.49341583251953 0 52 L 0 19 C 0 8.506584167480469 8.506584167480469 0 19 0 Z" stroke="none" fill="#fc9536"/>
      </g>
    </g>
    <g id="Icon" transform="translate(622.527 177.527)">
      <rect id="Area" width="40" height="40" transform="translate(0.473 0.473)" fill="#fcfcfc" opacity="0"/>
      <g id="Icon-2" data-name="Icon" transform="translate(0.473 0.473)">
        <circle id="b55ea3ba-a26c-4679-bf93-fb3f30883584" cx="20" cy="20" r="20" transform="translate(0 0)" fill="#fc9536"/>
        <path id="_31a86bb5-dfe5-4233-825b-a1c3dfb813a7" data-name="31a86bb5-dfe5-4233-825b-a1c3dfb813a7" d="M24.307,18.077A11.006,11.006,0,0,0,16.153,14,11.006,11.006,0,0,0,8,18.077" transform="translate(3.847 10.077)" fill="#fc9536" stroke="#fff" stroke-linecap="round" stroke-linejoin="round" stroke-width="2"/>
        <line id="_57bea704-28d4-4a8b-89de-963683e5c771" data-name="57bea704-28d4-4a8b-89de-963683e5c771" transform="translate(14 14)" fill="none" stroke="#fff" stroke-linecap="round" stroke-linejoin="round" stroke-width="8"/>
        <line id="bd7e2f69-5db1-4b34-995c-84eee34a861e" transform="translate(26 14)" fill="none" stroke="#fff" stroke-linecap="round" stroke-linejoin="round" stroke-width="8"/>
      </g>
    </g>
  </g>
</svg>
