<svg id="Group_58886" data-name="Group 58886" xmlns="http://www.w3.org/2000/svg" xmlns:xlink="http://www.w3.org/1999/xlink" width="23.355" height="23.3" viewBox="0 0 23.355 23.3">
  <defs>
    <clipPath id="clip-path">
      <rect id="Rectangle_11478" data-name="Rectangle 11478" width="23.355" height="23.3" fill="none"/>
    </clipPath>
  </defs>
  <g id="Group_58871" data-name="Group 58871" transform="translate(0 0)" clip-path="url(#clip-path)">
    <path id="Path_33114" data-name="Path 33114" d="M17.319,0H6.036C2.482-.055.113,2.314,0,6.038V17.264A5.838,5.838,0,0,0,6.036,23.3H17.375a6.212,6.212,0,0,0,4.287-1.636,5.865,5.865,0,0,0,1.692-4.4V6.038A6.043,6.043,0,0,0,17.319,0M6.036,1.694H17.319a4.346,4.346,0,0,1,4.344,4.344V16.29C20.36,14.4,19,13.936,18,13.936a3.777,3.777,0,0,0-2.512,1.047c-1.067-1.553-2.328-2.4-3.693-2.4-1.428,0-2.731.894-3.814,2.536A3.809,3.809,0,0,0,5.3,13.936a4.551,4.551,0,0,0-3.61,2.283V6.038c.113-2.764,1.692-4.4,4.344-4.344m5.754,12.58c1.739,0,3.5,2.916,4.487,7.329l-8.951-.045c.94-4.331,2.726-7.284,4.464-7.284M2.06,19.058C2.988,16.9,4.181,15.628,5.3,15.628a2.488,2.488,0,0,1,1.816,1.055,22.07,22.07,0,0,0-1.512,4.849A4.1,4.1,0,0,1,2.06,19.058M18,21.584a22.141,22.141,0,0,0-1.65-5.1A2.391,2.391,0,0,1,18,15.628c1.128,0,2.326,1.274,3.285,3.494l.085-.037a3.8,3.8,0,0,1-.887,1.393A4.2,4.2,0,0,1,18,21.584" transform="translate(0 0)" fill="#fdc100"/>
    <path id="Path_33115" data-name="Path 33115" d="M17.886,15.273A3.385,3.385,0,1,0,14.5,11.888a3.388,3.388,0,0,0,3.385,3.385m0-5.077a1.692,1.692,0,1,1-1.692,1.692A1.694,1.694,0,0,1,17.886,10.2" transform="translate(-6.32 -3.706)" fill="#fdc100"/>
    <path id="Path_33116" data-name="Path 33116" d="M7.278,19.156A2.877,2.877,0,1,0,4.4,16.28a2.88,2.88,0,0,0,2.878,2.877m0-4.062A1.185,1.185,0,1,1,6.092,16.28a1.186,1.186,0,0,1,1.185-1.185" transform="translate(-1.918 -5.841)" fill="#fdc100"/>
    <path id="Path_33117" data-name="Path 33117" d="M29.578,18.956A2.877,2.877,0,1,0,26.7,16.08a2.88,2.88,0,0,0,2.878,2.877m0-4.062a1.185,1.185,0,1,1-1.185,1.185,1.186,1.186,0,0,1,1.185-1.185" transform="translate(-11.638 -5.754)" fill="#fdc100"/>
  </g>
</svg>
