<svg id="Layer_1" data-name="Layer 1" xmlns="http://www.w3.org/2000/svg" viewBox="0 0 16 16"><defs><style>.cls-1{opacity:0.6;}.cls-2{fill:#fff;}</style></defs><title>Untitled-1</title><circle class="cls-1" cx="8" cy="8" r="7"/><path class="cls-2" d="M9.22,12H6.78v-.27a2.07,2.07,0,0,1,.34-.15l.39-.12V7.15l-.73-.09V6.78a4.29,4.29,0,0,1,.69-.23c.25-.07.5-.12.75-.17h.27v5.08l.4.12a1.66,1.66,0,0,1,.33.15ZM7.3,4.65a.58.58,0,0,1,.19-.47A.72.72,0,0,1,8,4a.68.68,0,0,1,.5.18.58.58,0,0,1,.19.47.58.58,0,0,1-.19.46.68.68,0,0,1-.5.17.72.72,0,0,1-.51-.17A.58.58,0,0,1,7.3,4.65Z"/></svg>