<svg xmlns="http://www.w3.org/2000/svg" xmlns:xlink="http://www.w3.org/1999/xlink" width="28" height="28" viewBox="0 0 28 28">
  <defs>
    <clipPath id="clip-path">
      <rect id="Rectangle_10099" data-name="Rectangle 10099" width="28" height="28" fill="#54536e"/>
    </clipPath>
  </defs>
  <g id="Group_57498" data-name="Group 57498" transform="translate(-310.035 -44.921)">
    <g id="Group_55010" data-name="Group 55010" transform="translate(310.035 44.921)" clip-path="url(#clip-path)">
      <g id="Group_55009" data-name="Group 55009" transform="translate(2.01 4.918)">
        <path id="Path_59767" data-name="Path 59767" d="M331.066,61.512a4.081,4.081,0,1,0-4.08-4.08A4.085,4.085,0,0,0,331.066,61.512Zm0-6.947a2.866,2.866,0,1,1-2.866,2.867A2.869,2.869,0,0,1,331.066,54.565Z" transform="translate(-319.108 -53.351)" fill="#54536e"/>
        <path id="Path_59768" data-name="Path 59768" d="M320.02,64.121a2.508,2.508,0,1,0-2.508-2.508A2.51,2.51,0,0,0,320.02,64.121Zm0-4.044a1.536,1.536,0,1,1-1.536,1.536A1.538,1.538,0,0,1,320.02,60.077Z" transform="translate(-315.161 -55.748)" fill="#54536e"/>
        <path id="Path_59769" data-name="Path 59769" d="M337.461,71.7A3.128,3.128,0,0,0,336,69.548a5.685,5.685,0,0,0-3.33-1.133,5.6,5.6,0,0,0-3.6,1.379,9.052,9.052,0,0,0-3.74-.837,9.187,9.187,0,0,0-3.562.743,5.6,5.6,0,0,0-3.491-1.285c-2.6,0-4.794,2.021-4.794,3.29,0,1.289,1.86,1.95,3.925,2.089a2.234,2.234,0,0,0-.087.588c0,2.343,4.129,3.411,7.965,3.411s7.965-1.068,7.965-3.411a2.223,2.223,0,0,0-.081-.569C335.376,73.731,337.461,73.07,337.461,71.7Zm-23.008,0c0-.653,1.695-2.318,3.822-2.318a4.581,4.581,0,0,1,2.511.792,8.166,8.166,0,0,0-2.949,2.665C315.73,72.771,314.453,72.155,314.453,71.7Zm10.832,4.873c-4.038,0-6.75-1.136-6.75-2.2,0-1.22,2.94-4.209,6.793-4.209,3.8,0,6.708,2.989,6.708,4.209C332.035,75.442,329.323,76.578,325.285,76.578Zm7.457-3.728a8,8,0,0,0-2.737-2.566,4.6,4.6,0,0,1,2.662-.9c2.127,0,3.821,1.665,3.821,2.318C336.489,72.18,335.064,72.84,332.742,72.85Z" transform="translate(-313.481 -59.628)" fill="#54536e"/>
        <path id="Path_59770" data-name="Path 59770" d="M344.469,64.121a2.508,2.508,0,1,0-2.508-2.508A2.511,2.511,0,0,0,344.469,64.121Zm0-4.044a1.536,1.536,0,1,1-1.536,1.536A1.538,1.538,0,0,1,344.469,60.077Z" transform="translate(-325.348 -55.748)" fill="#54536e"/>
      </g>
    </g>
  </g>
</svg>
