<svg xmlns="http://www.w3.org/2000/svg" width="9.774" height="12.1" viewBox="0 0 9.774 12.1">
  <g id="Group_56726" data-name="Group 56726" transform="translate(-272.018 -538)">
    <g id="Group_56373" data-name="Group 56373" transform="translate(272.018 544.525)">
      <path id="Path_60447" data-name="Path 60447" d="M-2809.357,1427.747c-2.662,0-4.913,2.078-4.913,3.384,0,1.512,2.454,2.191,4.887,2.191s4.887-.677,4.887-2.191C-2804.5,1429.793-2806.674,1427.747-2809.357,1427.747Zm-.025,4.51c-2.545,0-3.823-.722-3.823-1.127,0-.561,1.6-2.317,3.849-2.317,2.113,0,3.8,1.666,3.8,2.317,0,.4-1.277,1.126-3.823,1.126Z" transform="translate(2814.27 -1427.747)" fill="#be67ad"/>
    </g>
    <g id="Group_56374" data-name="Group 56374" transform="translate(273.979 538)">
      <path id="Path_60448" data-name="Path 60448" d="M-2807.9,1422.442a2.983,2.983,0,0,1-2.98-2.98,2.983,2.983,0,0,1,2.98-2.98,2.984,2.984,0,0,1,2.98,2.98A2.983,2.983,0,0,1-2807.9,1422.442Zm0-4.975a2,2,0,0,0-2,2,2,2,0,0,0,2,2,2,2,0,0,0,2-2A2,2,0,0,0-2807.9,1417.467Z" transform="translate(2810.883 -1416.482)" fill="#be67ad"/>
    </g>
  </g>
</svg>
