<svg xmlns="http://www.w3.org/2000/svg" xmlns:xlink="http://www.w3.org/1999/xlink" width="24" height="24" viewBox="0 0 24 24">
  <defs>
    <clipPath id="clip-path">
      <rect id="Rectangle_12532" data-name="Rectangle 12532" width="24" height="24" transform="translate(0.403)" fill="none" stroke="#707070" stroke-width="1"/>
    </clipPath>
    <clipPath id="clip-path-2">
      <rect id="Rectangle_12531" data-name="Rectangle 12531" width="15.291" height="18.245" fill="#fff" stroke="#fff" stroke-width="0.1"/>
    </clipPath>
  </defs>
  <g id="Mask_Group_131" data-name="Mask Group 131" transform="translate(-0.403)" clip-path="url(#clip-path)">
    <g id="Group_58557" data-name="Group 58557" transform="translate(4.073 3.306)">
      <g id="Group_58556" data-name="Group 58556" clip-path="url(#clip-path-2)">
        <path id="Path_83755" data-name="Path 83755" d="M7.491,18.245c-.6-.254-1.211-.48-1.794-.767a9.446,9.446,0,0,1-5.26-6.515A14.289,14.289,0,0,1,.014,7.83C-.012,6.322,0,4.814.008,3.306A.642.642,0,0,1,.7,2.647c.457-.026.914-.033,1.369-.081A8.36,8.36,0,0,0,6.941.408C7.016.34,7.088.269,7.163.2a.652.652,0,0,1,.942,0c.4.336.791.685,1.218.982A7.954,7.954,0,0,0,12.9,2.525c.528.068,1.064.09,1.6.116s.757.248.761.771c.01,1.194.038,2.387.027,3.58a16.958,16.958,0,0,1-.524,4.229,9.4,9.4,0,0,1-5.082,6.2c-.617.309-1.269.551-1.905.824ZM1.285,3.935c0,.064-.008.122-.008.181-.01.766-.025,1.532-.028,2.3a17.951,17.951,0,0,0,.4,4.172A8.108,8.108,0,0,0,4.09,14.877,10.394,10.394,0,0,0,7.559,16.9a.262.262,0,0,0,.183-.011c.665-.311,1.352-.585,1.986-.949a7.836,7.836,0,0,0,3.181-3.343A10.879,10.879,0,0,0,13.963,8.14c.06-1.346.023-2.695.028-4.043,0-.058-.008-.115-.011-.169-.463-.052-.911-.093-1.356-.154a9.276,9.276,0,0,1-4.8-2.118.237.237,0,0,0-.377,0A9.2,9.2,0,0,1,2.838,3.743c-.509.077-1.023.127-1.553.192" transform="translate(0 0)" fill="#fff" stroke="#fff" stroke-width="0.1"/>
        <path id="Path_83756" data-name="Path 83756" d="M6.637,9.8C7.65,8.787,8.648,7.787,9.645,6.788a.7.7,0,0,1,.476-.249.6.6,0,0,1,.6.331.608.608,0,0,1-.053.686,1.53,1.53,0,0,1-.156.171L7.19,11.051a.671.671,0,0,1-1.116,0q-.819-.819-1.637-1.637a.629.629,0,0,1-.182-.651.6.6,0,0,1,.483-.447.633.633,0,0,1,.611.207L6.5,9.667c.042.041.085.08.141.133" transform="translate(0.119 0.184)" fill="#fff" stroke="#fff" stroke-width="0.1"/>
      </g>
    </g>
  </g>
</svg>
