<svg id="icons8-visa" xmlns="http://www.w3.org/2000/svg" width="25.804" height="18.431" viewBox="0 0 25.804 18.431">
  <path id="Path_83793" data-name="Path 83793" d="M28.8,24.974a2.458,2.458,0,0,1-2.458,2.458H5.458A2.458,2.458,0,0,1,3,24.974V11.458A2.458,2.458,0,0,1,5.458,9H26.346A2.458,2.458,0,0,1,28.8,11.458Z" transform="translate(-3 -9)" fill="#1565c0"/>
  <path id="Path_83794" data-name="Path 83794" d="M12.464,19,10.85,23.811s-.41-2.035-.45-2.291c-.918-2.1-2.274-1.979-2.274-1.979l1.6,6.216h1.942L14.351,19ZM14,25.758h1.764L16.832,19H15.046ZM26.485,19H24.629l-2.894,6.758h1.752l.361-.965h2.209l.188.965h1.605Zm-2.147,4.5.96-2.554.5,2.554Zm-5-2.532c0-.372.306-.649,1.183-.649a2.783,2.783,0,0,1,1.223.414l.286-1.419A5.385,5.385,0,0,0,20.374,19c-1.855,0-2.811.887-2.811,2.01,0,2.031,2.445,1.753,2.445,2.8,0,.179-.142.592-1.16.592a3.777,3.777,0,0,1-1.7-.374l-.3,1.361a4.144,4.144,0,0,0,1.915.372c1.265,0,3.02-.946,3.02-2.305C21.782,21.817,19.334,21.7,19.334,20.969Z" transform="translate(-4.977 -12.856)" fill="#fff"/>
  <path id="Path_83795" data-name="Path 83795" d="M9.521,22.717,8.927,19.8a1.09,1.09,0,0,0-.966-.632H5.233S8.711,20.2,9.521,22.717Z" transform="translate(-3.861 -12.921)" fill="#ffc107"/>
</svg>
