<?xml version="1.0" encoding="UTF-8"?><svg id="Curves" xmlns="http://www.w3.org/2000/svg" xmlns:xlink="http://www.w3.org/1999/xlink" viewBox="0 0 880 300"><defs><style>.cls-1{fill:url(#linear-gradient-2);isolation:isolate;opacity:.7;}.cls-2{fill:url(#linear-gradient);}.cls-3,.cls-4{fill:#fff;}.cls-5{fill:#ffae00;}.cls-6{fill:#2d2d2d;}.cls-7{fill:url(#linear-gradient-3);}.cls-4{filter:url(#drop-shadow-2);}</style><filter id="drop-shadow-2" filterUnits="userSpaceOnUse"><feOffset dx="7" dy="7"/><feGaussianBlur result="blur" stdDeviation="10"/><feFlood flood-color="#000" flood-opacity=".1"/><feComposite in2="blur" operator="in"/><feComposite in="SourceGraphic"/></filter><linearGradient id="linear-gradient" x1="228.02" y1="821.57" x2="94.11" y2="715.8" gradientTransform="translate(0 -620)" gradientUnits="userSpaceOnUse"><stop offset="0" stop-color="#775afd"/><stop offset="1" stop-color="#ac67fd"/></linearGradient><linearGradient id="linear-gradient-2" x1="130.85" y1="732.6" x2="194.5" y2="796.24" gradientTransform="translate(0 -620)" gradientUnits="userSpaceOnUse"><stop offset="0" stop-color="#ac67fd"/><stop offset="1" stop-color="#775afd"/></linearGradient><linearGradient id="linear-gradient-3" x1="178.6" y1="788.92" x2="244.17" y2="848.53" gradientTransform="translate(0 -620)" gradientUnits="userSpaceOnUse"><stop offset="0" stop-color="#ff7600"/><stop offset="1" stop-color="#fcdf00"/></linearGradient></defs><g id="Logo"><g><path class="cls-4" d="M778.09,104.84h-203.16c-1.17,0-2.17-.86-2.32-2.02-3.4-26.08-25.7-46.23-52.71-46.23H202.97c-1.79,0-3.56,.09-5.3,.26-.07,0-.13,0-.2,0H117.27c-5.13,0-10.07,.82-14.71,2.32-1.06,.35-2.21-.13-2.75-1.12-4.71-8.67-13.86-14.3-24.13-14.3-2.25,0-4.5,.28-6.68,.82-14.67,3.67-23.62,18.62-19.94,33.34l.09,.35c.88,3.27,2.33,6.29,4.25,8.95,.29,.4,.45,.88,.45,1.37v44.36c0,11.3,5.81,21.35,14.6,27.3,.66,.44,1.07,1.17,1.07,1.96v30.66c0,27.66,22.42,50.09,50.09,50.09h31.9c1.29,0,2.34,1.05,2.34,2.34v2.26c0,4.79,3.88,8.67,8.67,8.67H778.09c29.64,0,53.68-24.03,53.68-53.68v-44.04c0-29.64-24.03-53.68-53.68-53.68Z"/><g><path class="cls-6" d="M296.07,79.5h5.36l12.61,30.79h.43l12.6-30.79h5.36v37.09h-4.2v-28.18h-.36l-11.59,28.18h-4.06l-11.59-28.18h-.36v28.18h-4.2v-37.09Z"/><path class="cls-6" d="M349.02,117.25c-1.76,0-3.36-.34-4.8-1.01-1.44-.67-2.58-1.64-3.42-2.92-.85-1.27-1.27-2.82-1.27-4.63,0-1.59,.31-2.89,.94-3.88,.63-1,1.47-1.78,2.52-2.35,1.05-.57,2.21-.99,3.49-1.28s2.56-.51,3.85-.68c1.69-.22,3.06-.38,4.12-.5s1.83-.31,2.32-.59c.49-.28,.73-.76,.73-1.45v-.15c0-1.79-.49-3.17-1.46-4.17-.97-.99-2.44-1.49-4.41-1.49s-3.64,.45-4.8,1.34-1.97,1.85-2.45,2.86l-4.06-1.45c.72-1.69,1.69-3.01,2.91-3.96,1.21-.95,2.54-1.61,3.98-1.99,1.44-.38,2.86-.57,4.27-.57,.89,0,1.92,.11,3.09,.32s2.29,.64,3.39,1.29,2,1.64,2.73,2.95c.72,1.32,1.09,3.08,1.09,5.29v18.33h-4.27v-3.77h-.22c-.29,.6-.77,1.25-1.45,1.94-.68,.69-1.58,1.27-2.7,1.76-1.12,.48-2.49,.72-4.11,.72Zm.65-3.84c1.69,0,3.12-.33,4.28-1,1.17-.66,2.05-1.52,2.64-2.57,.6-1.05,.9-2.15,.9-3.31v-3.91c-.18,.22-.58,.41-1.19,.59-.61,.17-1.31,.33-2.1,.45-.79,.13-1.56,.23-2.3,.33-.74,.09-1.34,.17-1.8,.23-1.11,.15-2.15,.38-3.11,.7s-1.73,.8-2.32,1.43c-.59,.63-.88,1.49-.88,2.58,0,1.49,.55,2.61,1.66,3.36,1.1,.75,2.51,1.13,4.21,1.13Z"/><path class="cls-6" d="M380.1,117.17c-2.32,0-4.36-.59-6.14-1.77-1.77-1.18-3.16-2.84-4.17-5-1-2.15-1.5-4.71-1.5-7.65s.5-5.46,1.5-7.61c1-2.15,2.4-3.81,4.18-4.98,1.79-1.17,3.85-1.76,6.19-1.76,1.81,0,3.24,.3,4.3,.9,1.06,.6,1.87,1.27,2.43,2.03,.56,.75,1,1.37,1.31,1.86h.36v-13.69h4.27v37.09h-4.13v-4.27h-.51c-.31,.51-.76,1.14-1.34,1.91s-1.41,1.45-2.48,2.05c-1.07,.6-2.51,.9-4.29,.9Zm.58-3.84c1.71,0,3.16-.45,4.35-1.35,1.18-.9,2.08-2.15,2.7-3.75,.62-1.6,.92-3.45,.92-5.55s-.3-3.9-.91-5.46c-.6-1.56-1.5-2.78-2.68-3.66-1.18-.88-2.64-1.31-4.38-1.31s-3.32,.46-4.52,1.39c-1.2,.92-2.1,2.17-2.7,3.75-.6,1.58-.9,3.34-.9,5.3s.3,3.78,.91,5.39c.61,1.61,1.52,2.89,2.72,3.84s2.7,1.42,4.48,1.42Z"/><path class="cls-6" d="M412.92,117.17c-2.68,0-4.99-.6-6.93-1.79-1.94-1.19-3.43-2.85-4.47-5-1.04-2.14-1.57-4.64-1.57-7.49s.52-5.36,1.57-7.54,2.51-3.88,4.38-5.11c1.88-1.23,4.07-1.84,6.58-1.84,1.45,0,2.88,.24,4.29,.72,1.41,.48,2.7,1.26,3.86,2.34,1.16,1.08,2.08,2.51,2.77,4.28,.69,1.78,1.03,3.96,1.03,6.56v1.81h-21.44v-3.69h17.1c0-1.57-.31-2.97-.93-4.2-.62-1.23-1.5-2.2-2.64-2.92-1.14-.71-2.48-1.07-4.03-1.07-1.7,0-3.17,.42-4.41,1.26s-2.19,1.93-2.85,3.27c-.66,1.34-1,2.78-1,4.31v2.46c0,2.1,.36,3.88,1.1,5.33,.73,1.46,1.75,2.56,3.05,3.31,1.3,.76,2.82,1.13,4.55,1.13,1.12,0,2.14-.16,3.05-.48,.91-.32,1.7-.8,2.36-1.45,.66-.64,1.18-1.45,1.54-2.42l4.13,1.16c-.43,1.4-1.17,2.63-2.19,3.69-1.03,1.06-2.29,1.88-3.8,2.46-1.51,.59-3.21,.88-5.09,.88Z"/><path class="cls-6" d="M451.6,116.59l-8.48-27.82h4.49l6.01,21.3h.29l5.94-21.3h4.56l5.87,21.23h.29l6.01-21.23h4.49l-8.48,27.82h-4.2l-6.08-21.37h-.44l-6.08,21.37h-4.2Z"/><path class="cls-6" d="M488.91,84.14c-.83,0-1.55-.28-2.15-.85s-.9-1.25-.9-2.05,.3-1.48,.9-2.05c.6-.57,1.31-.85,2.15-.85s1.55,.28,2.15,.85c.6,.57,.9,1.25,.9,2.05s-.3,1.48-.9,2.05-1.31,.85-2.15,.85Zm-2.17,32.46v-27.82h4.27v27.82h-4.27Z"/><path class="cls-6" d="M510.93,88.78v3.62h-14.42v-3.62h14.42Zm-10.21-6.66h4.27v26.51c0,1.21,.18,2.11,.53,2.71,.36,.6,.82,1,1.38,1.2s1.16,.3,1.78,.3c.47,0,.86-.03,1.16-.08s.54-.1,.72-.14l.87,3.84c-.29,.11-.69,.22-1.21,.33-.52,.12-1.18,.17-1.97,.17-1.21,0-2.39-.26-3.54-.78-1.15-.52-2.11-1.31-2.86-2.37-.75-1.06-1.13-2.4-1.13-4.02v-27.67Z"/><path class="cls-6" d="M522.23,99.86v16.73h-4.27v-37.09h4.27v13.62h.36c.65-1.44,1.63-2.58,2.94-3.43,1.31-.85,3.06-1.28,5.24-1.28,1.9,0,3.56,.38,4.98,1.13,1.42,.75,2.53,1.91,3.32,3.46,.79,1.55,1.19,3.52,1.19,5.91v17.68h-4.27v-17.39c0-2.21-.57-3.92-1.71-5.13-1.14-1.21-2.72-1.82-4.74-1.82-1.4,0-2.65,.3-3.76,.89-1.11,.59-1.97,1.46-2.61,2.59s-.95,2.51-.95,4.13Z"/></g><g id="Animaker"><path class="cls-6" d="M86.73,142.13c-5.09,0-9.18-4.09-9.18-9.18v-54.49c3.99-1,6.39-5.09,5.39-9.08-1-3.99-5.09-6.39-9.08-5.39-3.99,1-6.39,5.09-5.39,9.08,.7,2.59,2.69,4.69,5.39,5.39v54.49c0,7.09,5.79,12.87,12.87,12.97h11.78v-3.79h-11.78Zm-14.87-70.86c0-2.1,1.7-3.79,3.69-3.79s3.79,1.7,3.79,3.69-1.7,3.79-3.69,3.79h0c-2.1,0-3.79-1.7-3.79-3.69q0-.1,0,0h0Z"/><path class="cls-5" d="M235.82,133.15c6.19-.2,11.38,4.69,11.58,10.88s-4.69,11.38-10.88,11.58h-.7"/><path class="cls-2" d="M117.27,76.86h90.71c15.37,0,27.74,12.47,27.74,27.74v90.62c0,15.37-12.47,27.74-27.74,27.74H117.27c-15.37,0-27.74-12.47-27.74-27.74V104.61c0-15.37,12.47-27.74,27.74-27.74Z"/><circle class="cls-3" cx="162.66" cy="144.41" r="45.01" transform="translate(-5.94 281.83) rotate(-80.78)"/><path class="cls-1" d="M162.67,103.21c22.75,0,41.22,18.46,41.22,41.22s-18.46,41.22-41.22,41.22-41.22-18.46-41.22-41.22h0c0-22.75,18.46-41.22,41.22-41.22m0-3.79c-24.85,0-45.01,20.16-45.01,45.01s20.16,45.01,45.01,45.01,45.01-20.16,45.01-45.01h0c0-24.85-20.16-45.01-45.01-45.01Z"/><circle class="cls-5" cx="162.67" cy="144.42" r="28.14" transform="translate(-5.94 281.86) rotate(-80.78)"/><circle class="cls-6" cx="162.67" cy="144.42" r="16.87"/><circle class="cls-3" cx="176.89" cy="135.57" r="5.59" transform="translate(-7.66 260.52) rotate(-71.56)"/><circle class="cls-3" cx="153.59" cy="158.7" r="3.79"/><path class="cls-6" d="M143.51,93.43c2.1-2.99,4.99-5.39,8.28-6.99,6.89-3.29,14.77-3.29,21.66,0,3.29,1.6,6.19,3.99,8.28,6.99-2.99-1.8-6.09-3.19-9.38-4.19-6.39-1.9-13.17-1.9-19.46,0-3.29,1-6.39,2.4-9.38,4.19Z"/><path class="cls-7" d="M203.89,161.19h45.01v45.01c0,16.57-13.47,30.04-30.04,30.04h-45.01v-45.01c0-16.57,13.47-29.94,30.04-30.04Z"/><path id="Path_82999" class="cls-3" d="M222.2,194.4h0l-15.5-8.96c-3.22-1.86-7.34-.75-9.2,2.47-.59,1.02-.9,2.19-.9,3.37v17.88c-.01,3.71,2.99,6.73,6.7,6.74h0c1.19,0,2.36-.32,3.39-.91l15.5-8.95c3.22-1.86,4.32-5.98,2.47-9.2-.59-1.02-1.44-1.87-2.45-2.47v.02Z"/></g><g><path class="cls-6" d="M288.56,229.03c-1.61,0-3.26-.31-4.95-.94-1.7-.62-3.13-1.47-4.29-2.54-1.16-1.07-1.74-2.32-1.74-3.75,0-.27,.04-.71,.13-1.34l25.85-84.23c.62-1.96,2.03-3.44,4.22-4.42,2.19-.98,4.53-1.47,7.03-1.47s4.96,.49,7.1,1.47c2.14,.98,3.53,2.46,4.15,4.42l25.84,84.23c.18,.63,.27,1.07,.27,1.34,0,1.34-.6,2.57-1.81,3.68-1.21,1.12-2.66,1.99-4.35,2.61-1.7,.63-3.35,.94-4.96,.94-1.43,0-2.66-.25-3.68-.74-1.03-.49-1.72-1.41-2.08-2.75l-5.09-17.81h-30.8l-4.96,17.81c-.36,1.34-1.07,2.25-2.14,2.75-1.07,.49-2.32,.74-3.75,.74Zm14.6-34.95h23.3l-11.65-41.11-11.65,41.11Z"/><path class="cls-6" d="M368.5,229.03c-2.5,0-4.55-.58-6.16-1.74-1.61-1.16-2.41-2.41-2.41-3.75v-52.76c0-1.61,.8-2.9,2.41-3.88,1.61-.98,3.66-1.47,6.16-1.47,2.14,0,3.95,.49,5.42,1.47,1.47,.98,2.21,2.28,2.21,3.88v4.02c1.34-2.59,3.55-4.93,6.63-7.03,3.08-2.1,6.85-3.15,11.32-3.15,4.19,0,8.03,1.23,11.52,3.68,3.48,2.46,6.27,5.74,8.37,9.84,2.1,4.11,3.15,8.66,3.15,13.66v31.74c0,1.79-.89,3.15-2.68,4.08-1.79,.94-3.8,1.41-6.03,1.41-1.96,0-3.88-.47-5.76-1.41-1.88-.94-2.81-2.3-2.81-4.08v-31.74c0-2.05-.51-3.97-1.54-5.76-1.03-1.78-2.43-3.28-4.22-4.49-1.79-1.21-3.75-1.81-5.89-1.81-1.79,0-3.53,.49-5.22,1.47-1.7,.98-3.08,2.37-4.15,4.15-1.07,1.79-1.61,3.93-1.61,6.43v31.74c0,1.34-.85,2.59-2.54,3.75-1.7,1.16-3.75,1.74-6.16,1.74Z"/><path class="cls-6" d="M438.54,151.23c-2.59,0-4.82-.87-6.7-2.61-1.88-1.74-2.81-3.68-2.81-5.83,0-2.32,.94-4.31,2.81-5.96,1.88-1.65,4.11-2.48,6.7-2.48s4.91,.83,6.7,2.48c1.78,1.65,2.68,3.64,2.68,5.96,0,2.14-.89,4.08-2.68,5.83-1.79,1.74-4.02,2.61-6.7,2.61Zm0,77.8c-2.5,0-4.55-.58-6.16-1.74-1.61-1.16-2.41-2.41-2.41-3.75v-52.76c0-1.61,.8-2.9,2.41-3.88,1.61-.98,3.66-1.47,6.16-1.47s4.46,.49,6.16,1.47c1.7,.98,2.54,2.28,2.54,3.88v52.76c0,1.34-.85,2.59-2.54,3.75-1.7,1.16-3.75,1.74-6.16,1.74Z"/><path class="cls-6" d="M469.07,229.03c-2.5,0-4.55-.58-6.16-1.74-1.61-1.16-2.41-2.41-2.41-3.75v-52.76c0-1.61,.8-2.9,2.41-3.88,1.61-.98,3.66-1.47,6.16-1.47,2.14,0,3.95,.49,5.42,1.47,1.47,.98,2.21,2.28,2.21,3.88v4.02c1.52-2.59,3.75-4.93,6.7-7.03,2.95-2.1,6.65-3.15,11.11-3.15,3.84,0,7.23,1.25,10.18,3.75,2.95,2.5,5.13,5.71,6.56,9.64,2.32-4.55,5.29-7.92,8.9-10.11,3.62-2.19,7.34-3.28,11.18-3.28,4.11,0,7.97,1.05,11.58,3.15,3.62,2.1,6.56,5.18,8.84,9.24,2.28,4.06,3.42,8.99,3.42,14.8v31.74c0,1.34-.85,2.59-2.54,3.75-1.7,1.16-3.75,1.74-6.16,1.74s-4.33-.58-6.03-1.74c-1.7-1.16-2.54-2.41-2.54-3.75v-31.74c0-2.68-.52-4.91-1.54-6.7-1.03-1.79-2.39-3.15-4.08-4.08-1.7-.94-3.44-1.41-5.22-1.41s-3.46,.47-5.02,1.41c-1.56,.94-2.88,2.3-3.95,4.08-1.07,1.79-1.61,3.97-1.61,6.56v32c0,1.88-.92,3.24-2.75,4.08-1.83,.85-3.82,1.27-5.96,1.27-1.96,0-3.88-.42-5.76-1.27-1.88-.85-2.81-2.21-2.81-4.08v-31.87c0-2.5-.51-4.64-1.54-6.43-1.03-1.79-2.37-3.17-4.02-4.15-1.65-.98-3.42-1.47-5.29-1.47s-3.48,.45-5.09,1.34c-1.61,.89-2.93,2.23-3.95,4.02-1.03,1.79-1.54,4.02-1.54,6.7v31.74c0,1.34-.85,2.59-2.54,3.75-1.7,1.16-3.75,1.74-6.16,1.74Z"/><path class="cls-6" d="M581.69,230.24c-4.73,0-8.82-1.45-12.25-4.35-3.44-2.9-5.16-7.39-5.16-13.46,0-5.09,1.32-9.06,3.95-11.92,2.63-2.86,6.29-4.86,10.98-6.03,4.69-1.16,10.11-1.74,16.27-1.74h5.49v-1.74c0-1.96-.38-3.88-1.14-5.76-.76-1.88-1.96-3.44-3.62-4.69-1.65-1.25-4-1.87-7.03-1.87-3.39,0-6.01,.33-7.83,1-1.83,.67-3.24,1.36-4.22,2.07-.98,.72-2.05,1.07-3.21,1.07-1.88,0-3.33-.94-4.35-2.81-1.03-1.88-1.54-3.79-1.54-5.76s1.14-3.55,3.41-5.02c2.28-1.47,5.07-2.61,8.37-3.42,3.3-.8,6.52-1.21,9.64-1.21,6.96,0,12.54,1.25,16.74,3.75,4.2,2.5,7.25,5.71,9.17,9.64,1.92,3.93,2.88,8.17,2.88,12.72v32.81c0,1.52-.8,2.81-2.41,3.88s-3.62,1.61-6.03,1.61c-2.23,0-4.09-.54-5.56-1.61s-2.21-2.36-2.21-3.88v-3.88c-2.41,2.77-5.25,5.22-8.5,7.37-3.26,2.14-7.21,3.21-11.85,3.21Zm6.96-12.86c1.88,0,3.75-.62,5.62-1.88,1.88-1.25,3.46-2.86,4.75-4.82,1.29-1.96,1.94-4.02,1.94-6.16v-2.81h-2.01c-2.95,0-5.76,.18-8.44,.54-2.68,.36-4.85,1.14-6.5,2.34-1.65,1.21-2.48,3.06-2.48,5.56s.69,4.33,2.08,5.49c1.38,1.16,3.06,1.74,5.02,1.74Z"/><path class="cls-6" d="M639.67,229.03c-2.41,0-4.42-.58-6.03-1.74-1.61-1.16-2.41-2.41-2.41-3.75v-89.85c0-1.61,.8-2.9,2.41-3.88,1.61-.98,3.62-1.47,6.03-1.47s4.6,.49,6.29,1.47c1.7,.98,2.54,2.28,2.54,3.88v56.11l25.31-23.7c.89-.89,2.01-1.34,3.35-1.34s2.65,.42,3.95,1.27c1.29,.85,2.37,1.9,3.21,3.15,.85,1.25,1.27,2.54,1.27,3.88,0,.54-.11,1.09-.33,1.67-.22,.58-.6,1.09-1.14,1.54l-15.8,14.33,19.82,28.12c.62,.98,.94,1.92,.94,2.81,0,1.34-.54,2.68-1.61,4.02-1.07,1.34-2.37,2.43-3.88,3.28-1.52,.85-2.99,1.27-4.42,1.27-1.79,0-3.21-.76-4.29-2.28l-17.94-26.65-8.44,7.63v14.73c0,1.34-.85,2.59-2.54,3.75-1.7,1.16-3.79,1.74-6.29,1.74Z"/><path class="cls-6" d="M725.91,230.24c-6.34,0-11.94-1.14-16.81-3.42-4.87-2.28-8.68-5.49-11.45-9.64-2.77-4.15-4.15-8.95-4.15-14.4v-11.38c0-4.82,1.32-9.26,3.95-13.32,2.63-4.06,6.16-7.32,10.58-9.78,4.42-2.45,9.35-3.68,14.8-3.68,5,0,9.57,1.07,13.73,3.21,4.15,2.14,7.52,5.09,10.11,8.84,2.59,3.75,3.88,8.12,3.88,13.12,0,3.84-.63,6.58-1.88,8.24-1.25,1.65-2.84,2.68-4.75,3.08-1.92,.4-3.91,.6-5.96,.6h-27.19v2.01c0,3.84,1.45,6.94,4.35,9.31,2.9,2.37,6.67,3.55,11.31,3.55,2.95,0,5.4-.45,7.37-1.34,1.96-.89,3.66-1.74,5.09-2.54,1.43-.8,2.77-1.21,4.02-1.21,1.34,0,2.5,.45,3.48,1.34,.98,.89,1.74,1.94,2.28,3.15s.8,2.26,.8,3.15c0,1.52-.96,3.15-2.88,4.89-1.92,1.74-4.64,3.21-8.17,4.42-3.53,1.21-7.7,1.81-12.52,1.81Zm-15.13-38.7h19.55c1.52,0,2.56-.25,3.15-.74,.58-.49,.87-1.45,.87-2.88,0-2.05-.54-3.88-1.61-5.49-1.07-1.61-2.5-2.86-4.29-3.75-1.79-.89-3.75-1.34-5.89-1.34s-3.97,.42-5.76,1.27c-1.79,.85-3.24,2.05-4.35,3.61-1.12,1.56-1.67,3.42-1.67,5.56v3.75Z"/><path class="cls-6" d="M769.3,229.03c-2.41,0-4.42-.58-6.03-1.74-1.61-1.16-2.41-2.41-2.41-3.75v-52.76c0-1.61,.8-2.9,2.41-3.88,1.61-.98,3.62-1.47,6.03-1.47,2.23,0,4.08,.49,5.56,1.47,1.47,.98,2.21,2.28,2.21,3.88v5.49c.98-1.96,2.3-3.82,3.95-5.56,1.65-1.74,3.55-3.19,5.69-4.35,2.14-1.16,4.42-1.74,6.83-1.74h4.15c1.7,0,3.17,.74,4.42,2.21,1.25,1.47,1.88,3.24,1.88,5.29s-.63,3.95-1.88,5.42c-1.25,1.47-2.72,2.21-4.42,2.21h-4.15c-2.5,0-4.93,.83-7.3,2.48-2.37,1.65-4.31,3.93-5.82,6.83-1.52,2.9-2.28,6.41-2.28,10.51v23.97c0,1.34-.85,2.59-2.54,3.75-1.7,1.16-3.79,1.74-6.29,1.74Z"/></g></g></g></svg>